<!-- Generated by readme-aura https://github.com/collectioneur/readme-aura -->
<svg width="1166" height="200" viewBox="0 0 1166 200" xmlns="http://www.w3.org/2000/svg"><clipPath id="satori_cp-id"><path x="0" y="0" width="1166" height="200" d="M20,0 h1126 a20,20 0 0 1 20,20 v160 a20,20 0 0 1 -20,20 h-1126 a20,20 0 0 1 -20,-20 v-160 a20,20 0 0 1 20,-20"/></clipPath><mask id="satori_om-id"><rect x="0" y="0" width="1166" height="200" fill="#fff"/></mask><path x="0" y="0" width="1166" height="200" fill="#08080d" d="M20,0 h1126 a20,20 0 0 1 20,20 v160 a20,20 0 0 1 -20,20 h-1126 a20,20 0 0 1 -20,-20 v-160 a20,20 0 0 1 20,-20"/><clipPath id="satori_cp-id-0" clip-path="url(#satori_cp-id)"><rect x="0" y="0" width="1166" height="200"/></clipPath><mask id="satori_om-id-0"><rect x="0" y="0" width="1166" height="200" fill="#fff" mask="url(#satori_om-id)"/></mask><svg x="0" y="0" width="1166" height="200" preserveAspectRatio="none" clip-path="url(#satori_cp-id-0)" mask="url(#satori_om-id-0)"><defs><radialGradient id="sg1" cx="50%" cy="50%" r="50%"><stop offset="0%" stop-color="rgba(36,150,237,0.4)"></stop><stop offset="100%" stop-color="rgba(36,150,237,0)"></stop></radialGradient><radialGradient id="sg2" cx="50%" cy="50%" r="50%"><stop offset="0%" stop-color="rgba(88,166,255,0.35)"></stop><stop offset="100%" stop-color="rgba(88,166,255,0)"></stop></radialGradient><radialGradient id="sg3" cx="50%" cy="50%" r="50%"><stop offset="0%" stop-color="rgba(27,111,184,0.3)"></stop><stop offset="100%" stop-color="rgba(27,111,184,0)"></stop></radialGradient><radialGradient id="sg4" cx="50%" cy="50%" r="50%"><stop offset="0%" stop-color="rgba(111,211,255,0.3)"></stop><stop offset="100%" stop-color="rgba(111,211,255,0)"></stop></radialGradient></defs><ellipse id="st-o1" cx="117" cy="160" rx="180" ry="120" fill="url(#sg1)"></ellipse><ellipse id="st-o2" cx="1064" cy="50" rx="170" ry="120" fill="url(#sg2)"></ellipse><ellipse id="st-o3" cx="933" cy="170" rx="160" ry="110" fill="url(#sg3)"></ellipse><ellipse id="st-o4" cx="262" cy="40" rx="150" ry="100" fill="url(#sg4)"></ellipse><style>

    @keyframes stack-orb { 0%, 100% { transform: translate(0,0); opacity: 0.45; } 50% { transform: translate(18px,-14px); opacity: 0.7; } }
    @keyframes stack-orb-b { 0%, 100% { transform: translate(0,0); opacity: 0.4; } 50% { transform: translate(-14px,10px); opacity: 0.65; } }
    @keyframes chip-appear { 0% { opacity: 0; transform: translateY(8px); } 100% { opacity: 1; transform: translateY(0); } }
    #st-o1 { animation: stack-orb 10s ease-in-out infinite; }
    #st-o2 { animation: stack-orb-b 12s ease-in-out infinite 1s; }
    #st-o3 { animation: stack-orb 9s ease-in-out infinite 2.5s; }
    #st-o4 { animation: stack-orb-b 11s ease-in-out infinite 0.5s; }
  
</style>
</svg><mask id="satori_om-id-0-0"><rect x="0" y="0" width="0" height="200" fill="#fff" mask="url(#satori_om-id)"/></mask><mask id="satori_om-id-0-0-0"><rect x="0" y="0" width="0" height="200" fill="#fff" mask="url(#satori_om-id)"/></mask><mask id="satori_om-id-0-0-0-0"><rect x="0" y="0" width="0" height="200" fill="#fff" mask="url(#satori_om-id)"/></mask><mask id="satori_om-id-0-0-0-1"><rect x="0" y="0" width="0" height="200" fill="#fff" mask="url(#satori_om-id)"/></mask><mask id="satori_om-id-0-0-1"><rect x="0" y="0" width="0" height="200" fill="#fff" mask="url(#satori_om-id)"/></mask><mask id="satori_om-id-0-0-1-0"><rect x="0" y="0" width="0" height="200" fill="#fff" mask="url(#satori_om-id)"/></mask><mask id="satori_om-id-0-0-1-1"><rect x="0" y="0" width="0" height="200" fill="#fff" mask="url(#satori_om-id)"/></mask><mask id="satori_om-id-0-0-2"><rect x="0" y="0" width="0" height="200" fill="#fff" mask="url(#satori_om-id)"/></mask><mask id="satori_om-id-0-0-2-0"><rect x="0" y="0" width="0" height="200" fill="#fff" mask="url(#satori_om-id)"/></mask><mask id="satori_om-id-0-0-2-1"><rect x="0" y="0" width="0" height="200" fill="#fff" mask="url(#satori_om-id)"/></mask><mask id="satori_om-id-0-0-3"><rect x="0" y="0" width="0" height="200" fill="#fff" mask="url(#satori_om-id)"/></mask><mask id="satori_om-id-0-0-3-0"><rect x="0" y="0" width="0" height="200" fill="#fff" mask="url(#satori_om-id)"/></mask><mask id="satori_om-id-0-0-3-1"><rect x="0" y="0" width="0" height="200" fill="#fff" mask="url(#satori_om-id)"/></mask><mask id="satori_om-id-0-1"><rect x="0" y="0" width="0" height="200" fill="#fff" mask="url(#satori_om-id)"/></mask><mask id="satori_om-id-0-2"><rect x="0" y="0" width="0" height="200" fill="#fff" mask="url(#satori_om-id)"/></mask><mask id="satori_om-id-0-3"><rect x="0" y="0" width="0" height="200" fill="#fff" mask="url(#satori_om-id)"/></mask><mask id="satori_om-id-0-4"><rect x="0" y="0" width="0" height="200" fill="#fff" mask="url(#satori_om-id)"/></mask><mask id="satori_om-id-1"><rect x="554" y="48" width="58" height="13" fill="#fff" mask="url(#satori_om-id)"/></mask><g mask="url(#satori_om-id)" clip-path="url(#satori_cp-id)"><path fill="rgba(255,255,255,0.3)" d="M557.5 59.1L557.5 59.1Q556.7 59.1 556.0 58.9Q555.4 58.6 555.0 58.1Q554.7 57.6 554.6 56.9L554.6 56.9L555.7 56.9Q555.7 57.4 556.0 57.6Q556.2 57.9 556.7 58.1Q557.1 58.2 557.5 58.2L557.5 58.2Q558.1 58.2 558.5 58.0Q558.9 57.9 559.2 57.5Q559.4 57.2 559.4 56.8L559.4 56.8Q559.4 56.4 559.2 56.2Q559.0 55.9 558.6 55.8Q558.3 55.6 557.9 55.5L557.9 55.5L556.9 55.2Q555.9 55.0 555.4 54.4Q554.8 53.9 554.8 53.1L554.8 53.1Q554.8 52.5 555.2 52.0Q555.6 51.4 556.2 51.2Q556.8 50.9 557.6 50.9L557.6 50.9Q558.4 50.9 559.0 51.2Q559.6 51.4 560.0 51.9Q560.3 52.4 560.3 53.0L560.3 53.0L559.3 53.0Q559.3 52.4 558.8 52.1Q558.3 51.8 557.6 51.8L557.6 51.8Q557.1 51.8 556.7 52.0Q556.3 52.1 556.1 52.4Q555.8 52.7 555.8 53.1L555.8 53.1Q555.8 53.5 556.1 53.8Q556.4 54.0 556.7 54.2Q557.1 54.3 557.4 54.4L557.4 54.4L558.2 54.6Q558.5 54.7 558.9 54.8Q559.3 55.0 559.6 55.2Q560.0 55.5 560.2 55.9Q560.4 56.3 560.4 56.8L560.4 56.8Q560.4 57.5 560.1 58.0Q559.8 58.5 559.1 58.8Q558.5 59.1 557.5 59.1ZM568.1 51.9L565.6 51.9L565.6 51.0L571.6 51.0L571.6 51.9L569.1 51.9L569.1 59L568.1 59L568.1 51.9ZM577.5 59L576.4 59L579.3 51.0L580.5 51.0L583.5 59L582.4 59L581.6 56.8L578.3 56.8L577.5 59ZM578.6 55.9L581.3 55.9L580.7 54.3Q580.5 53.8 580.3 53.2L580.3 53.2Q580.2 52.6 579.9 51.8L579.9 51.8Q579.7 52.6 579.5 53.2L579.5 53.2Q579.3 53.8 579.2 54.3L579.2 54.3L578.6 55.9ZM592.0 59.1L592.0 59.1Q590.9 59.1 590.1 58.6Q589.3 58.1 588.9 57.2Q588.4 56.3 588.4 55.0L588.4 55.0Q588.4 53.7 588.9 52.8Q589.3 51.9 590.1 51.4Q590.9 50.9 592.0 50.9L592.0 50.9Q592.6 50.9 593.1 51.1Q593.6 51.2 594.1 51.6Q594.5 51.9 594.8 52.4Q595.1 52.9 595.2 53.5L595.2 53.5L594.2 53.5Q594.1 53.1 593.9 52.8Q593.7 52.5 593.4 52.3Q593.1 52.0 592.7 51.9Q592.3 51.8 592.0 51.8L592.0 51.8Q591.2 51.8 590.7 52.2Q590.1 52.6 589.7 53.3Q589.4 54.0 589.4 55.0L589.4 55.0Q589.4 56.0 589.7 56.7Q590.1 57.4 590.7 57.8Q591.2 58.2 592.0 58.2L592.0 58.2Q592.3 58.2 592.7 58.1Q593.1 57.9 593.4 57.7Q593.7 57.5 593.9 57.2Q594.1 56.9 594.2 56.5L594.2 56.5L595.2 56.5Q595.1 57.1 594.8 57.6Q594.5 58.1 594.1 58.4Q593.6 58.7 593.1 58.9Q592.6 59.1 592.0 59.1ZM601.8 59L600.7 59L600.7 51.0L601.8 51.0L601.8 53.7L601.8 55.2Q601.9 55.1 602.0 54.9L602.0 54.9Q602.3 54.6 602.5 54.2Q602.8 53.9 603.1 53.6L603.1 53.6L605.5 51.0L606.9 51.0L603.6 54.5L606.9 59L605.7 59L602.9 55.2L601.8 56.4L601.8 59Z "/></g><mask id="satori_om-id-2"><rect x="243" y="81" width="680" height="72" fill="#fff" mask="url(#satori_om-id)"/></mask><defs><clipPath id="satori_bc-id-2-0" clip-path="url(#satori_cp-id)"><path x="293" y="81" width="73" height="31" d="M308.5,81 h42 a15.5,15.5 0 0 1 15.5,15.5 v0 a15.5,15.5 0 0 1 -15.5,15.5 h-42 a15.5,15.5 0 0 1 -15.5,-15.5 v0 a15.5,15.5 0 0 1 15.5,-15.5"/></clipPath></defs><mask id="satori_om-id-2-0"><rect x="294" y="82" width="71" height="29" fill="#fff" mask="url(#satori_om-id)"/><path width="73" height="31" fill="none" stroke="#000" stroke-width="2" d="M297.54,85.53999999999999 A15.5,15.5 0 0 1 308.5,81 h42 a15.5,15.5 0 0 1 15.5,15.5 v0 a15.5,15.5 0 0 1 -15.5,15.5 h-42 a15.5,15.5 0 0 1 -15.5,-15.5 v0 A15.5,15.5 0 0 1 297.54,85.53999999999999"/></mask><path x="293" y="81" width="73" height="31" fill="rgba(255,255,255,0.04)" d="M308.5,81 h42 a15.5,15.5 0 0 1 15.5,15.5 v0 a15.5,15.5 0 0 1 -15.5,15.5 h-42 a15.5,15.5 0 0 1 -15.5,-15.5 v0 a15.5,15.5 0 0 1 15.5,-15.5" clip-path="url(#satori_cp-id)" mask="url(#satori_om-id)"/><path width="73" height="31" clip-path="url(#satori_bc-id-2-0)" fill="none" stroke="rgba(255,255,255,0.08)" stroke-width="2" d="M297.54,85.53999999999999 A15.5,15.5 0 0 1 308.5,81 h42 a15.5,15.5 0 0 1 15.5,15.5 v0 a15.5,15.5 0 0 1 -15.5,15.5 h-42 a15.5,15.5 0 0 1 -15.5,-15.5 v0 A15.5,15.5 0 0 1 297.54,85.53999999999999"/><g mask="url(#satori_om-id)" clip-path="url(#satori_cp-id)"><path fill="rgba(255,255,255,0.65)" d="M314.2 101L313.1 101L313.1 92.3L316.0 92.3Q317.1 92.3 317.7 92.6Q318.4 93.0 318.7 93.6Q319.0 94.2 319.0 95.0Q319.0 95.7 318.7 96.3Q318.4 96.9 317.7 97.3L317.7 97.3Q317.6 97.4 317.4 97.4L317.4 97.4L319.4 101L318.1 101L316.3 97.6Q316.2 97.6 316.0 97.6L316.0 97.6L314.2 97.6L314.2 101ZM314.2 93.2L314.2 96.6L316.0 96.6Q316.7 96.6 317.1 96.4Q317.5 96.2 317.7 95.8Q317.9 95.5 317.9 95.0L317.9 95.0Q317.9 94.4 317.7 94.1Q317.5 93.7 317.1 93.5Q316.7 93.2 316.0 93.2L316.0 93.2L314.2 93.2ZM323.9 101.1L323.9 101.1Q323.0 101.1 322.3 100.7Q321.6 100.3 321.2 99.5Q320.8 98.8 320.8 97.8Q320.8 96.8 321.2 96.0Q321.6 95.2 322.2 94.8Q322.9 94.4 323.8 94.4L323.8 94.4Q324.3 94.4 324.8 94.5Q325.3 94.7 325.7 95.1Q326.1 95.5 326.4 96.1Q326.6 96.7 326.6 97.6L326.6 97.6L326.6 98.1L321.9 98.1Q321.9 98.7 322.2 99.2L322.2 99.2Q322.4 99.7 322.9 99.9Q323.3 100.2 323.9 100.2L323.9 100.2Q324.3 100.2 324.6 100.1Q324.9 100.0 325.2 99.8Q325.4 99.5 325.5 99.2L325.5 99.2L326.5 99.5Q326.4 100.0 326.0 100.3Q325.6 100.7 325.1 100.9Q324.6 101.1 323.9 101.1ZM321.9 97.2L321.9 97.2L325.6 97.2Q325.5 96.7 325.4 96.4L325.4 96.4Q325.2 95.9 324.8 95.6Q324.4 95.3 323.8 95.3Q323.2 95.3 322.8 95.6Q322.3 95.9 322.1 96.3L322.1 96.3Q321.9 96.7 321.9 97.2ZM330.5 101.2L330.5 101.2Q329.9 101.2 329.4 100.9Q328.8 100.7 328.5 100.2Q328.2 99.8 328.2 99.1L328.2 99.1Q328.2 98.6 328.5 98.2Q328.7 97.9 329.1 97.7Q329.4 97.5 329.9 97.4Q330.3 97.3 330.8 97.2L330.8 97.2Q331.4 97.1 331.8 97.1Q332.1 97.1 332.3 97.0Q332.5 96.9 332.5 96.6L332.5 96.6L332.5 96.6Q332.5 96.2 332.3 95.9Q332.2 95.6 331.9 95.4Q331.6 95.3 331.1 95.3L331.1 95.3Q330.6 95.3 330.3 95.4Q330.0 95.6 329.8 95.8Q329.6 96.0 329.4 96.3L329.4 96.3L328.4 95.9Q328.7 95.3 329.1 95.0Q329.5 94.6 330.1 94.5Q330.6 94.4 331.1 94.4L331.1 94.4Q331.4 94.4 331.8 94.4Q332.2 94.5 332.6 94.8Q333.0 95.0 333.3 95.5Q333.5 95.9 333.5 96.7L333.5 96.7L333.5 101L332.5 101L332.5 100.1L332.4 100.1Q332.3 100.3 332.1 100.6Q331.8 100.8 331.4 101.0Q331.0 101.2 330.5 101.2ZM330.7 100.2L330.7 100.2Q331.2 100.2 331.7 100.0Q332.1 99.8 332.3 99.4Q332.5 99.0 332.5 98.6L332.5 98.6L332.5 97.7Q332.4 97.8 332.2 97.9Q332.0 97.9 331.7 98.0Q331.4 98.0 331.2 98.0Q330.9 98.1 330.7 98.1L330.7 98.1Q330.4 98.1 330.0 98.3Q329.7 98.4 329.5 98.6Q329.3 98.8 329.3 99.2L329.3 99.2Q329.3 99.5 329.5 99.8Q329.7 100.0 330.0 100.1Q330.3 100.2 330.7 100.2ZM338.5 101.1L338.5 101.1Q337.7 101.1 337.0 100.7Q336.3 100.3 335.9 99.5Q335.6 98.8 335.6 97.8L335.6 97.8Q335.6 96.7 335.9 96.0Q336.3 95.2 337.0 94.8Q337.7 94.4 338.5 94.4L338.5 94.4Q339.0 94.4 339.4 94.5Q339.9 94.6 340.2 94.8Q340.6 95.1 340.8 95.4Q341.1 95.8 341.2 96.2L341.2 96.2L340.2 96.5Q340.1 96.2 340.0 96.0Q339.8 95.8 339.6 95.6Q339.4 95.5 339.1 95.4Q338.9 95.3 338.5 95.3L338.5 95.3Q337.9 95.3 337.5 95.7Q337.0 96.0 336.8 96.6Q336.6 97.1 336.6 97.8L336.6 97.8Q336.6 98.4 336.8 99.0Q337.0 99.5 337.5 99.9Q337.9 100.2 338.5 100.2L338.5 100.2Q338.9 100.2 339.2 100.1Q339.4 100.0 339.6 99.9Q339.9 99.7 340.0 99.5Q340.1 99.3 340.2 99.0L340.2 99.0L341.2 99.3Q341.1 99.7 340.8 100.1Q340.6 100.4 340.2 100.6Q339.9 100.9 339.5 101.0Q339.0 101.1 338.5 101.1ZM344.5 94.4L345.8 94.4L345.8 95.4L344.5 95.4L344.5 99.3Q344.5 99.7 344.6 99.9Q344.8 100.1 345.2 100.1L345.2 100.1Q345.3 100.1 345.5 100.1Q345.7 100.1 345.8 100.1L345.8 100.1L346.0 101.0Q345.8 101.0 345.6 101.1Q345.4 101.1 345.2 101.1L345.2 101.1Q344.4 101.1 343.9 100.6Q343.4 100.2 343.4 99.4L343.4 99.4L343.4 95.4L342.4 95.4L342.4 94.4L343.4 94.4L343.4 92.9L344.5 92.9L344.5 94.4Z "/></g><defs><clipPath id="satori_bc-id-2-1" clip-path="url(#satori_cp-id)"><path x="376" y="81" width="106" height="31" d="M391.5,81 h75 a15.5,15.5 0 0 1 15.5,15.5 v0 a15.5,15.5 0 0 1 -15.5,15.5 h-75 a15.5,15.5 0 0 1 -15.5,-15.5 v0 a15.5,15.5 0 0 1 15.5,-15.5"/></clipPath></defs><mask id="satori_om-id-2-1"><rect x="377" y="82" width="104" height="29" fill="#fff" mask="url(#satori_om-id)"/><path width="106" height="31" fill="none" stroke="#000" stroke-width="2" d="M380.54,85.53999999999999 A15.5,15.5 0 0 1 391.5,81 h75 a15.5,15.5 0 0 1 15.5,15.5 v0 a15.5,15.5 0 0 1 -15.5,15.5 h-75 a15.5,15.5 0 0 1 -15.5,-15.5 v0 A15.5,15.5 0 0 1 380.54,85.53999999999999"/></mask><path x="376" y="81" width="106" height="31" fill="rgba(255,255,255,0.04)" d="M391.5,81 h75 a15.5,15.5 0 0 1 15.5,15.5 v0 a15.5,15.5 0 0 1 -15.5,15.5 h-75 a15.5,15.5 0 0 1 -15.5,-15.5 v0 a15.5,15.5 0 0 1 15.5,-15.5" clip-path="url(#satori_cp-id)" mask="url(#satori_om-id)"/><path width="106" height="31" clip-path="url(#satori_bc-id-2-1)" fill="none" stroke="rgba(255,255,255,0.08)" stroke-width="2" d="M380.54,85.53999999999999 A15.5,15.5 0 0 1 391.5,81 h75 a15.5,15.5 0 0 1 15.5,15.5 v0 a15.5,15.5 0 0 1 -15.5,15.5 h-75 a15.5,15.5 0 0 1 -15.5,-15.5 v0 A15.5,15.5 0 0 1 380.54,85.53999999999999"/><g mask="url(#satori_om-id)" clip-path="url(#satori_cp-id)"><path fill="rgba(255,255,255,0.65)" d="M398.3 93.3L395.6 93.3L395.6 92.3L402.2 92.3L402.2 93.3L399.4 93.3L399.4 101L398.3 101L398.3 93.3ZM404.1 103.4L404.1 103.4L404.3 102.5L404.4 102.5Q404.8 102.6 405.0 102.5Q405.3 102.5 405.5 102.3Q405.7 102.0 405.9 101.6L405.9 101.6L406.1 101.0L403.6 94.4L404.7 94.4L406.1 98.3Q406.3 98.9 406.5 99.5L406.5 99.5Q406.6 99.8 406.6 100.0L406.6 100.0Q406.7 99.8 406.8 99.5L406.8 99.5Q406.9 98.9 407.1 98.3L407.1 98.3L408.5 94.4L409.7 94.4L406.8 102.0Q406.6 102.5 406.3 102.8Q406.0 103.2 405.7 103.3Q405.3 103.5 404.8 103.5L404.8 103.5Q404.6 103.5 404.4 103.5Q404.1 103.4 404.1 103.4ZM412.5 103.4L411.4 103.4L411.4 94.4L412.4 94.4L412.4 95.5L412.6 95.5Q412.7 95.3 412.9 95.1Q413.1 94.8 413.4 94.6Q413.8 94.4 414.5 94.4L414.5 94.4Q415.3 94.4 415.9 94.8Q416.5 95.2 416.9 95.9Q417.2 96.7 417.2 97.7L417.2 97.7Q417.2 98.8 416.9 99.5Q416.5 100.3 415.9 100.7Q415.3 101.1 414.5 101.1L414.5 101.1Q413.8 101.1 413.5 100.9Q413.1 100.7 412.9 100.4Q412.7 100.2 412.6 100.0L412.6 100.0L412.5 100.0L412.5 103.4ZM414.3 100.2L414.3 100.2Q414.9 100.2 415.3 99.9Q415.7 99.5 415.9 99.0Q416.2 98.4 416.2 97.7L416.2 97.7Q416.2 97.1 416.0 96.5Q415.7 96.0 415.3 95.6Q414.9 95.3 414.3 95.3L414.3 95.3Q413.7 95.3 413.3 95.6Q412.9 95.9 412.7 96.5Q412.5 97.0 412.5 97.7L412.5 97.7Q412.5 98.5 412.7 99.0Q412.9 99.6 413.3 99.9Q413.7 100.2 414.3 100.2ZM422.0 101.1L422.0 101.1Q421.1 101.1 420.4 100.7Q419.7 100.3 419.3 99.5Q418.9 98.8 418.9 97.8Q418.9 96.8 419.3 96.0Q419.7 95.2 420.3 94.8Q421.0 94.4 421.9 94.4L421.9 94.4Q422.4 94.4 422.9 94.5Q423.4 94.7 423.8 95.1Q424.3 95.5 424.5 96.1Q424.7 96.7 424.7 97.6L424.7 97.6L424.7 98.1L420.0 98.1Q420.0 98.7 420.3 99.2L420.3 99.2Q420.5 99.7 421.0 99.9Q421.4 100.2 422.0 100.2L422.0 100.2Q422.4 100.2 422.7 100.1Q423.0 100.0 423.3 99.8Q423.5 99.5 423.6 99.2L423.6 99.2L424.6 99.5Q424.5 100.0 424.1 100.3Q423.8 100.7 423.2 100.9Q422.7 101.1 422.0 101.1ZM420.0 97.2L420.0 97.2L423.7 97.2Q423.6 96.7 423.5 96.4L423.5 96.4Q423.3 95.9 422.9 95.6Q422.5 95.3 421.9 95.3Q421.3 95.3 420.9 95.6Q420.5 95.9 420.2 96.3L420.2 96.3Q420.0 96.7 420.0 97.2ZM429.7 101.2L429.7 101.2Q428.7 101.2 428.0 100.8Q427.4 100.5 427.0 100.0Q426.6 99.4 426.5 98.7L426.5 98.7L427.7 98.7Q427.7 99.2 428.0 99.5Q428.3 99.8 428.7 100.0Q429.2 100.2 429.7 100.2L429.7 100.2Q430.3 100.2 430.7 100.0Q431.2 99.8 431.5 99.4Q431.8 99.1 431.8 98.6L431.8 98.6Q431.8 98.2 431.5 97.9Q431.3 97.7 430.9 97.5Q430.5 97.3 430.0 97.2L430.0 97.2L429.0 96.9Q427.9 96.6 427.3 96.0Q426.8 95.5 426.8 94.6L426.8 94.6Q426.8 93.9 427.2 93.3Q427.6 92.8 428.2 92.5Q428.9 92.2 429.8 92.2L429.8 92.2Q430.6 92.2 431.3 92.5Q431.9 92.8 432.3 93.3Q432.7 93.8 432.7 94.5L432.7 94.5L431.6 94.5Q431.6 93.8 431.0 93.5Q430.5 93.1 429.7 93.1L429.7 93.1Q429.2 93.1 428.7 93.3Q428.3 93.5 428.1 93.8Q427.8 94.1 427.8 94.6L427.8 94.6Q427.8 95.0 428.1 95.3Q428.4 95.6 428.8 95.7Q429.2 95.9 429.5 96.0L429.5 96.0L430.4 96.2Q430.7 96.3 431.2 96.5Q431.6 96.6 432.0 96.9Q432.4 97.2 432.6 97.6Q432.9 98.0 432.9 98.6L432.9 98.6Q432.9 99.3 432.5 99.9Q432.1 100.5 431.4 100.8Q430.7 101.2 429.7 101.2ZM437.6 101.1L437.6 101.1Q436.7 101.1 436.1 100.7Q435.4 100.3 435.0 99.5Q434.6 98.8 434.6 97.8L434.6 97.8Q434.6 96.7 435.0 96.0Q435.4 95.2 436.1 94.8Q436.7 94.4 437.6 94.4L437.6 94.4Q438.1 94.4 438.5 94.5Q438.9 94.6 439.3 94.8Q439.6 95.1 439.9 95.4Q440.1 95.8 440.3 96.2L440.3 96.2L439.3 96.5Q439.2 96.2 439.0 96.0Q438.9 95.8 438.7 95.6Q438.5 95.5 438.2 95.4Q437.9 95.3 437.6 95.3L437.6 95.3Q437.0 95.3 436.5 95.7Q436.1 96.0 435.9 96.6Q435.7 97.1 435.7 97.8L435.7 97.8Q435.7 98.4 435.9 99.0Q436.1 99.5 436.5 99.9Q437.0 100.2 437.6 100.2L437.6 100.2Q438.0 100.2 438.2 100.1Q438.5 100.0 438.7 99.9Q438.9 99.7 439.1 99.5Q439.2 99.3 439.3 99.0L439.3 99.0L440.3 99.3Q440.2 99.7 439.9 100.1Q439.7 100.4 439.3 100.6Q439.0 100.9 438.5 101.0Q438.1 101.1 437.6 101.1ZM443.4 101L442.3 101L442.3 94.4L443.3 94.4L443.3 95.5L443.4 95.5Q443.6 95.0 444.1 94.7Q444.5 94.4 445.1 94.4L445.1 94.4Q445.2 94.4 445.4 94.4Q445.5 94.4 445.6 94.4L445.6 94.4L445.6 95.4Q445.6 95.4 445.4 95.4Q445.2 95.4 445.0 95.4L445.0 95.4Q444.5 95.4 444.2 95.6Q443.8 95.8 443.6 96.1Q443.4 96.5 443.4 96.9L443.4 96.9L443.4 101ZM448.4 101L447.3 101L447.3 94.4L448.4 94.4L448.4 101ZM447.9 93.4L447.9 93.4Q447.6 93.4 447.3 93.2Q447.1 93.0 447.1 92.7L447.1 92.7Q447.1 92.4 447.3 92.2Q447.6 92.0 447.9 92.0L447.9 92.0Q448.2 92.0 448.4 92.2Q448.6 92.4 448.6 92.7L448.6 92.7Q448.6 93.0 448.4 93.2Q448.2 93.4 447.9 93.4ZM451.8 103.4L450.7 103.4L450.7 94.4L451.8 94.4L451.8 95.5L451.9 95.5Q452.0 95.3 452.2 95.1Q452.4 94.8 452.8 94.6Q453.1 94.4 453.8 94.4L453.8 94.4Q454.6 94.4 455.2 94.8Q455.8 95.2 456.2 95.9Q456.6 96.7 456.6 97.7L456.6 97.7Q456.6 98.8 456.2 99.5Q455.8 100.3 455.2 100.7Q454.6 101.1 453.8 101.1L453.8 101.1Q453.2 101.1 452.8 100.9Q452.4 100.7 452.2 100.4Q452.0 100.2 451.9 100.0L451.9 100.0L451.8 100.0L451.8 103.4ZM453.6 100.2L453.6 100.2Q454.2 100.2 454.6 99.9Q455.1 99.5 455.3 99.0Q455.5 98.4 455.5 97.7L455.5 97.7Q455.5 97.1 455.3 96.5Q455.1 96.0 454.7 95.6Q454.2 95.3 453.6 95.3L453.6 95.3Q453.0 95.3 452.6 95.6Q452.2 95.9 452.0 96.5Q451.8 97.0 451.8 97.7L451.8 97.7Q451.8 98.5 452.0 99.0Q452.2 99.6 452.6 99.9Q453.0 100.2 453.6 100.2ZM459.8 94.4L461.2 94.4L461.2 95.4L459.8 95.4L459.8 99.3Q459.8 99.7 460.0 99.9Q460.2 100.1 460.6 100.1L460.6 100.1Q460.7 100.1 460.8 100.1Q461 100.1 461.1 100.1L461.1 100.1L461.3 101.0Q461.2 101.0 461.0 101.1Q460.8 101.1 460.6 101.1L460.6 101.1Q459.7 101.1 459.2 100.6Q458.8 100.2 458.8 99.4L458.8 99.4L458.8 95.4L457.8 95.4L457.8 94.4L458.8 94.4L458.8 92.9L459.8 92.9L459.8 94.4Z "/></g><defs><clipPath id="satori_bc-id-2-2" clip-path="url(#satori_cp-id)"><path x="492" y="81" width="104" height="31" d="M507.5,81 h73 a15.5,15.5 0 0 1 15.5,15.5 v0 a15.5,15.5 0 0 1 -15.5,15.5 h-73 a15.5,15.5 0 0 1 -15.5,-15.5 v0 a15.5,15.5 0 0 1 15.5,-15.5"/></clipPath></defs><mask id="satori_om-id-2-2"><rect x="493" y="82" width="102" height="29" fill="#fff" mask="url(#satori_om-id)"/><path width="104" height="31" fill="none" stroke="#000" stroke-width="2" d="M496.54,85.53999999999999 A15.5,15.5 0 0 1 507.5,81 h73 a15.5,15.5 0 0 1 15.5,15.5 v0 a15.5,15.5 0 0 1 -15.5,15.5 h-73 a15.5,15.5 0 0 1 -15.5,-15.5 v0 A15.5,15.5 0 0 1 496.54,85.53999999999999"/></mask><path x="492" y="81" width="104" height="31" fill="rgba(255,255,255,0.04)" d="M507.5,81 h73 a15.5,15.5 0 0 1 15.5,15.5 v0 a15.5,15.5 0 0 1 -15.5,15.5 h-73 a15.5,15.5 0 0 1 -15.5,-15.5 v0 a15.5,15.5 0 0 1 15.5,-15.5" clip-path="url(#satori_cp-id)" mask="url(#satori_om-id)"/><path width="104" height="31" clip-path="url(#satori_bc-id-2-2)" fill="none" stroke="rgba(255,255,255,0.08)" stroke-width="2" d="M496.54,85.53999999999999 A15.5,15.5 0 0 1 507.5,81 h73 a15.5,15.5 0 0 1 15.5,15.5 v0 a15.5,15.5 0 0 1 -15.5,15.5 h-73 a15.5,15.5 0 0 1 -15.5,-15.5 v0 A15.5,15.5 0 0 1 496.54,85.53999999999999"/><g mask="url(#satori_om-id)" clip-path="url(#satori_cp-id)"><path fill="rgba(255,255,255,0.65)" d="M514.2 101.1L514.2 101.1Q513.0 101.1 512.3 100.4Q511.6 99.8 511.6 98.5L511.6 98.5L511.6 98.0L512.7 98.0L512.7 98.5Q512.7 99.3 513.1 99.7Q513.5 100.1 514.2 100.1L514.2 100.1Q514.9 100.1 515.3 99.7Q515.7 99.3 515.7 98.5L515.7 98.5L515.7 92.3L516.8 92.3L516.8 98.5Q516.8 99.8 516.1 100.4Q515.3 101.1 514.2 101.1ZM521.1 101.2L521.1 101.2Q520.5 101.2 520.0 100.9Q519.5 100.7 519.2 100.2Q518.9 99.8 518.9 99.1L518.9 99.1Q518.9 98.6 519.1 98.2Q519.3 97.9 519.7 97.7Q520.1 97.5 520.5 97.4Q521.0 97.3 521.4 97.2L521.4 97.2Q522.0 97.1 522.4 97.1Q522.8 97.1 522.9 97.0Q523.1 96.9 523.1 96.6L523.1 96.6L523.1 96.6Q523.1 96.2 523.0 95.9Q522.8 95.6 522.5 95.4Q522.2 95.3 521.7 95.3L521.7 95.3Q521.3 95.3 520.9 95.4Q520.6 95.6 520.4 95.8Q520.2 96.0 520.1 96.3L520.1 96.3L519.1 95.9Q519.3 95.3 519.7 95.0Q520.2 94.6 520.7 94.5Q521.2 94.4 521.7 94.4L521.7 94.4Q522.0 94.4 522.5 94.4Q522.9 94.5 523.3 94.8Q523.7 95.0 523.9 95.5Q524.2 95.9 524.2 96.7L524.2 96.7L524.2 101L523.1 101L523.1 100.1L523.1 100.1Q522.9 100.3 522.7 100.6Q522.5 100.8 522.1 101.0Q521.7 101.2 521.1 101.2ZM521.3 100.2L521.3 100.2Q521.9 100.2 522.3 100.0Q522.7 99.8 522.9 99.4Q523.1 99.0 523.1 98.6L523.1 98.6L523.1 97.7Q523.0 97.8 522.8 97.9Q522.6 97.9 522.3 98.0Q522.1 98.0 521.8 98.0Q521.5 98.1 521.4 98.1L521.4 98.1Q521.0 98.1 520.7 98.3Q520.3 98.4 520.1 98.6Q519.9 98.8 519.9 99.2L519.9 99.2Q519.9 99.5 520.1 99.8Q520.3 100.0 520.6 100.1Q520.9 100.2 521.3 100.2ZM529.5 101L528.4 101L525.9 94.4L527.1 94.4L528.5 98.3Q528.7 98.9 528.8 99.5L528.8 99.5Q528.9 99.8 529.0 100.0L529.0 100.0Q529.0 99.8 529.1 99.5L529.1 99.5Q529.3 98.9 529.5 98.3L529.5 98.3L530.9 94.4L532.0 94.4L529.5 101ZM535.6 101.2L535.6 101.2Q535.0 101.2 534.5 100.9Q534.0 100.7 533.7 100.2Q533.4 99.8 533.4 99.1L533.4 99.1Q533.4 98.6 533.6 98.2Q533.8 97.9 534.2 97.7Q534.5 97.5 535 97.4Q535.5 97.3 535.9 97.2L535.9 97.2Q536.5 97.1 536.9 97.1Q537.2 97.1 537.4 97.0Q537.6 96.9 537.6 96.6L537.6 96.6L537.6 96.6Q537.6 96.2 537.4 95.9Q537.3 95.6 537.0 95.4Q536.7 95.3 536.2 95.3L536.2 95.3Q535.8 95.3 535.4 95.4Q535.1 95.6 534.9 95.8Q534.7 96.0 534.6 96.3L534.6 96.3L533.5 95.9Q533.8 95.3 534.2 95.0Q534.7 94.6 535.2 94.5Q535.7 94.4 536.2 94.4L536.2 94.4Q536.5 94.4 536.9 94.4Q537.4 94.5 537.7 94.8Q538.1 95.0 538.4 95.5Q538.6 95.9 538.6 96.7L538.6 96.7L538.6 101L537.6 101L537.6 100.1L537.5 100.1Q537.4 100.3 537.2 100.6Q536.9 100.8 536.5 101.0Q536.1 101.2 535.6 101.2ZM535.8 100.2L535.8 100.2Q536.4 100.2 536.8 100.0Q537.2 99.8 537.4 99.4Q537.6 99.0 537.6 98.6L537.6 98.6L537.6 97.7Q537.5 97.8 537.3 97.9Q537.1 97.9 536.8 98.0Q536.5 98.0 536.3 98.0Q536.0 98.1 535.9 98.1L535.9 98.1Q535.5 98.1 535.1 98.3Q534.8 98.4 534.6 98.6Q534.4 98.8 534.4 99.2L534.4 99.2Q534.4 99.5 534.6 99.8Q534.8 100.0 535.1 100.1Q535.4 100.2 535.8 100.2ZM543.9 101.2L543.9 101.2Q543.0 101.2 542.3 100.8Q541.6 100.5 541.2 100.0Q540.8 99.4 540.8 98.7L540.8 98.7L541.9 98.7Q541.9 99.2 542.2 99.5Q542.5 99.8 543.0 100.0Q543.4 100.2 543.9 100.2L543.9 100.2Q544.5 100.2 545.0 100.0Q545.5 99.8 545.7 99.4Q546.0 99.1 546.0 98.6L546.0 98.6Q546.0 98.2 545.8 97.9Q545.5 97.7 545.1 97.5Q544.7 97.3 544.3 97.2L544.3 97.2L543.2 96.9Q542.2 96.6 541.6 96.0Q541.0 95.5 541.0 94.6L541.0 94.6Q541.0 93.9 541.4 93.3Q541.8 92.8 542.5 92.5Q543.2 92.2 544.0 92.2L544.0 92.2Q544.9 92.2 545.5 92.5Q546.2 92.8 546.6 93.3Q546.9 93.8 547.0 94.5L547.0 94.5L545.9 94.5Q545.8 93.8 545.3 93.5Q544.7 93.1 544.0 93.1L544.0 93.1Q543.4 93.1 543.0 93.3Q542.5 93.5 542.3 93.8Q542.1 94.1 542.1 94.6L542.1 94.6Q542.1 95.0 542.4 95.3Q542.6 95.6 543.0 95.7Q543.4 95.9 543.7 96.0L543.7 96.0L544.6 96.2Q545.0 96.3 545.4 96.5Q545.8 96.6 546.2 96.9Q546.6 97.2 546.8 97.6Q547.1 98.0 547.1 98.6L547.1 98.6Q547.1 99.3 546.7 99.9Q546.3 100.5 545.6 100.8Q544.9 101.2 543.9 101.2ZM551.9 101.1L551.9 101.1Q551.0 101.1 550.3 100.7Q549.6 100.3 549.3 99.5Q548.9 98.8 548.9 97.8L548.9 97.8Q548.9 96.7 549.3 96.0Q549.6 95.2 550.3 94.8Q551.0 94.4 551.9 94.4L551.9 94.4Q552.3 94.4 552.8 94.5Q553.2 94.6 553.5 94.8Q553.9 95.1 554.1 95.4Q554.4 95.8 554.5 96.2L554.5 96.2L553.5 96.5Q553.4 96.2 553.3 96.0Q553.1 95.8 552.9 95.6Q552.7 95.5 552.5 95.4Q552.2 95.3 551.9 95.3L551.9 95.3Q551.2 95.3 550.8 95.7Q550.4 96.0 550.2 96.6Q550.0 97.1 550.0 97.8L550.0 97.8Q550.0 98.4 550.2 99.0Q550.4 99.5 550.8 99.9Q551.2 100.2 551.9 100.2L551.9 100.2Q552.2 100.2 552.5 100.1Q552.7 100.0 553.0 99.9Q553.2 99.7 553.3 99.5Q553.5 99.3 553.5 99.0L553.5 99.0L554.5 99.3Q554.4 99.7 554.2 100.1Q553.9 100.4 553.5 100.6Q553.2 100.9 552.8 101.0Q552.3 101.1 551.9 101.1ZM557.6 101L556.6 101L556.6 94.4L557.6 94.4L557.6 95.5L557.6 95.5Q557.8 95.0 558.3 94.7Q558.8 94.4 559.3 94.4L559.3 94.4Q559.5 94.4 559.6 94.4Q559.8 94.4 559.9 94.4L559.9 94.4L559.9 95.4Q559.8 95.4 559.6 95.4Q559.5 95.4 559.2 95.4L559.2 95.4Q558.8 95.4 558.4 95.6Q558.0 95.8 557.8 96.1Q557.6 96.5 557.6 96.9L557.6 96.9L557.6 101ZM562.6 101L561.6 101L561.6 94.4L562.6 94.4L562.6 101ZM562.1 93.4L562.1 93.4Q561.8 93.4 561.6 93.2Q561.4 93.0 561.4 92.7L561.4 92.7Q561.4 92.4 561.6 92.2Q561.8 92.0 562.1 92.0L562.1 92.0Q562.4 92.0 562.6 92.2Q562.8 92.4 562.8 92.7L562.8 92.7Q562.8 93.0 562.6 93.2Q562.4 93.4 562.1 93.4ZM566.0 103.4L565.0 103.4L565.0 94.4L566.0 94.4L566.0 95.5L566.1 95.5Q566.2 95.3 566.4 95.1Q566.6 94.8 567.0 94.6Q567.4 94.4 568.0 94.4L568.0 94.4Q568.8 94.4 569.5 94.8Q570.1 95.2 570.4 95.9Q570.8 96.7 570.8 97.7L570.8 97.7Q570.8 98.8 570.4 99.5Q570.1 100.3 569.5 100.7Q568.8 101.1 568.0 101.1L568.0 101.1Q567.4 101.1 567.0 100.9Q566.6 100.7 566.4 100.4Q566.2 100.2 566.1 100.0L566.1 100.0L566.0 100.0L566.0 103.4ZM567.9 100.2L567.9 100.2Q568.5 100.2 568.9 99.9Q569.3 99.5 569.5 99.0Q569.7 98.4 569.7 97.7L569.7 97.7Q569.7 97.1 569.5 96.5Q569.3 96.0 568.9 95.6Q568.5 95.3 567.9 95.3L567.9 95.3Q567.3 95.3 566.8 95.6Q566.4 95.9 566.2 96.5Q566.0 97.0 566.0 97.7L566.0 97.7Q566.0 98.5 566.2 99.0Q566.4 99.6 566.9 99.9Q567.3 100.2 567.9 100.2ZM574.1 94.4L575.4 94.4L575.4 95.4L574.1 95.4L574.1 99.3Q574.1 99.7 574.2 99.9Q574.4 100.1 574.8 100.1L574.8 100.1Q574.9 100.1 575.1 100.1Q575.2 100.1 575.4 100.1L575.4 100.1L575.6 101.0Q575.4 101.0 575.2 101.1Q575.0 101.1 574.8 101.1L574.8 101.1Q573.9 101.1 573.5 100.6Q573.0 100.2 573.0 99.4L573.0 99.4L573.0 95.4L572.0 95.4L572.0 94.4L573.0 94.4L573.0 92.9L574.1 92.9L574.1 94.4Z "/></g><defs><clipPath id="satori_bc-id-2-3" clip-path="url(#satori_cp-id)"><path x="606" y="81" width="85" height="31" d="M621.5,81 h54 a15.5,15.5 0 0 1 15.5,15.5 v0 a15.5,15.5 0 0 1 -15.5,15.5 h-54 a15.5,15.5 0 0 1 -15.5,-15.5 v0 a15.5,15.5 0 0 1 15.5,-15.5"/></clipPath></defs><mask id="satori_om-id-2-3"><rect x="607" y="82" width="83" height="29" fill="#fff" mask="url(#satori_om-id)"/><path width="85" height="31" fill="none" stroke="#000" stroke-width="2" d="M610.54,85.53999999999999 A15.5,15.5 0 0 1 621.5,81 h54 a15.5,15.5 0 0 1 15.5,15.5 v0 a15.5,15.5 0 0 1 -15.5,15.5 h-54 a15.5,15.5 0 0 1 -15.5,-15.5 v0 A15.5,15.5 0 0 1 610.54,85.53999999999999"/></mask><path x="606" y="81" width="85" height="31" fill="rgba(255,255,255,0.04)" d="M621.5,81 h54 a15.5,15.5 0 0 1 15.5,15.5 v0 a15.5,15.5 0 0 1 -15.5,15.5 h-54 a15.5,15.5 0 0 1 -15.5,-15.5 v0 a15.5,15.5 0 0 1 15.5,-15.5" clip-path="url(#satori_cp-id)" mask="url(#satori_om-id)"/><path width="85" height="31" clip-path="url(#satori_bc-id-2-3)" fill="none" stroke="rgba(255,255,255,0.08)" stroke-width="2" d="M610.54,85.53999999999999 A15.5,15.5 0 0 1 621.5,81 h54 a15.5,15.5 0 0 1 15.5,15.5 v0 a15.5,15.5 0 0 1 -15.5,15.5 h-54 a15.5,15.5 0 0 1 -15.5,-15.5 v0 A15.5,15.5 0 0 1 610.54,85.53999999999999"/><g mask="url(#satori_om-id)" clip-path="url(#satori_cp-id)"><path fill="rgba(255,255,255,0.65)" d="M627.2 101L626.1 101L626.1 92.3L627.4 92.3L630.9 97.9Q631.1 98.1 631.3 98.4Q631.5 98.8 631.7 99.2L631.7 99.2Q631.8 99.4 631.9 99.7L631.9 99.7Q631.9 99.4 631.9 99.1L631.9 99.1Q631.9 98.7 631.9 98.3Q631.9 97.9 631.9 97.6L631.9 97.6L631.9 92.3L633.0 92.3L633.0 101L631.7 101L628.5 96.0Q628.3 95.7 628.1 95.3Q627.8 95.0 627.6 94.4L627.6 94.4Q627.4 94.1 627.1 93.6L627.1 93.6Q627.1 94.0 627.1 94.4L627.1 94.4Q627.1 95.0 627.2 95.4Q627.2 95.8 627.2 96.0L627.2 96.0L627.2 101ZM638.1 101.1L638.1 101.1Q637.2 101.1 636.6 100.7Q635.9 100.3 635.5 99.5Q635.2 98.8 635.2 97.8L635.2 97.8Q635.2 96.7 635.5 96.0Q635.9 95.2 636.6 94.8Q637.2 94.4 638.1 94.4L638.1 94.4Q639.0 94.4 639.7 94.8Q640.4 95.2 640.8 96.0Q641.1 96.7 641.1 97.8L641.1 97.8Q641.1 98.8 640.8 99.5Q640.4 100.3 639.7 100.7Q639.0 101.1 638.1 101.1ZM638.1 100.2L638.1 100.2Q638.8 100.2 639.2 99.9Q639.7 99.5 639.9 99.0Q640.1 98.4 640.1 97.8L640.1 97.8Q640.1 97.1 639.9 96.6Q639.7 96.0 639.2 95.7Q638.8 95.3 638.1 95.3L638.1 95.3Q637.5 95.3 637.1 95.7Q636.6 96.0 636.4 96.6Q636.2 97.1 636.2 97.8L636.2 97.8Q636.2 98.4 636.4 99.0Q636.6 99.5 637.1 99.9Q637.5 100.2 638.1 100.2ZM645.6 101.1L645.6 101.1Q644.8 101.1 644.2 100.7Q643.5 100.3 643.2 99.5Q642.8 98.8 642.8 97.7L642.8 97.7Q642.8 96.7 643.2 95.9Q643.6 95.2 644.2 94.8Q644.8 94.4 645.6 94.4L645.6 94.4Q646.3 94.4 646.6 94.6Q647.0 94.8 647.2 95.1Q647.4 95.3 647.5 95.5L647.5 95.5L647.6 95.5L647.6 92.3L648.7 92.3L648.7 101L647.6 101L647.6 100.0L647.5 100.0Q647.4 100.2 647.2 100.4Q647 100.7 646.6 100.9Q646.2 101.1 645.6 101.1ZM645.8 100.2L645.8 100.2Q646.4 100.2 646.8 99.9Q647.2 99.6 647.4 99.0Q647.6 98.5 647.6 97.7L647.6 97.7Q647.6 97.0 647.4 96.5Q647.2 95.9 646.8 95.6Q646.4 95.3 645.8 95.3L645.8 95.3Q645.2 95.3 644.7 95.6Q644.3 96.0 644.1 96.5Q643.9 97.1 643.9 97.7L643.9 97.7Q643.9 98.4 644.1 99.0Q644.3 99.5 644.8 99.9Q645.2 100.2 645.8 100.2ZM653.8 101.1L653.8 101.1Q652.8 101.1 652.1 100.7Q651.4 100.3 651.1 99.5Q650.7 98.8 650.7 97.8Q650.7 96.8 651.1 96.0Q651.4 95.2 652.1 94.8Q652.8 94.4 653.6 94.4L653.6 94.4Q654.2 94.4 654.7 94.5Q655.2 94.7 655.6 95.1Q656.0 95.5 656.2 96.1Q656.5 96.7 656.5 97.6L656.5 97.6L656.5 98.1L651.8 98.1Q651.8 98.7 652.0 99.2L652.0 99.2Q652.3 99.7 652.7 99.9Q653.2 100.2 653.8 100.2L653.8 100.2Q654.2 100.2 654.5 100.1Q654.8 100.0 655.0 99.8Q655.2 99.5 655.4 99.2L655.4 99.2L656.4 99.5Q656.2 100.0 655.9 100.3Q655.5 100.7 655.0 100.9Q654.4 101.1 653.8 101.1ZM651.8 97.2L651.8 97.2L655.4 97.2Q655.4 96.7 655.2 96.4L655.2 96.4Q655.0 95.9 654.6 95.6Q654.2 95.3 653.6 95.3Q653.0 95.3 652.6 95.6Q652.2 95.9 652.0 96.3L652.0 96.3Q651.8 96.7 651.8 97.2ZM659.3 101.1L659.3 101.1Q659.0 101.1 658.7 100.8Q658.5 100.6 658.5 100.3L658.5 100.3Q658.5 100.0 658.7 99.7Q659.0 99.5 659.3 99.5L659.3 99.5Q659.6 99.5 659.9 99.7Q660.1 100.0 660.1 100.3L660.1 100.3Q660.1 100.6 659.9 100.8Q659.6 101.1 659.3 101.1ZM662.5 101.5L662.5 94.4L663.5 94.4L663.5 101.5Q663.5 102.1 663.3 102.5Q663.1 103.0 662.7 103.2Q662.2 103.4 661.6 103.4L661.6 103.4L661.4 103.4L661.4 102.5L661.6 102.5Q662.0 102.5 662.2 102.2Q662.5 102.0 662.5 101.5L662.5 101.5ZM663.0 93.4L663.0 93.4Q662.7 93.4 662.5 93.2Q662.3 93.0 662.3 92.7L662.3 92.7Q662.3 92.4 662.5 92.2Q662.7 92.0 663.0 92.0L663.0 92.0Q663.3 92.0 663.5 92.2Q663.7 92.4 663.7 92.7L663.7 92.7Q663.7 93.0 663.5 93.2Q663.3 93.4 663.0 93.4ZM668.1 101.1L668.1 101.1Q667.4 101.1 666.9 100.9Q666.4 100.7 666.0 100.4Q665.7 100.0 665.6 99.4L665.6 99.4L666.6 99.2Q666.7 99.7 667.1 100.0Q667.5 100.2 668.1 100.2L668.1 100.2Q668.8 100.2 669.2 99.9Q669.6 99.6 669.6 99.2L669.6 99.2Q669.6 98.9 669.3 98.7Q669.1 98.4 668.6 98.3L668.6 98.3L667.5 98.1Q666.6 97.9 666.2 97.4Q665.8 97.0 665.8 96.3L665.8 96.3Q665.8 95.7 666.1 95.3Q666.4 94.9 667.0 94.6Q667.5 94.4 668.2 94.4L668.2 94.4Q668.9 94.4 669.3 94.6Q669.8 94.8 670.1 95.1Q670.4 95.5 670.6 95.9L670.6 95.9L669.6 96.2Q669.5 95.8 669.2 95.6Q668.8 95.3 668.2 95.3L668.2 95.3Q667.6 95.3 667.2 95.5Q666.8 95.8 666.8 96.2L666.8 96.2Q666.8 96.6 667.1 96.8Q667.4 97.0 667.9 97.2L667.9 97.2L668.9 97.4Q669.8 97.6 670.3 98.0Q670.7 98.5 670.7 99.2L670.7 99.2Q670.7 99.7 670.4 100.2Q670.0 100.6 669.4 100.9Q668.9 101.1 668.1 101.1Z "/></g><defs><clipPath id="satori_bc-id-2-4" clip-path="url(#satori_cp-id)"><path x="701" y="81" width="82" height="31" d="M716.5,81 h51 a15.5,15.5 0 0 1 15.5,15.5 v0 a15.5,15.5 0 0 1 -15.5,15.5 h-51 a15.5,15.5 0 0 1 -15.5,-15.5 v0 a15.5,15.5 0 0 1 15.5,-15.5"/></clipPath></defs><mask id="satori_om-id-2-4"><rect x="702" y="82" width="80" height="29" fill="#fff" mask="url(#satori_om-id)"/><path width="82" height="31" fill="none" stroke="#000" stroke-width="2" d="M705.54,85.53999999999999 A15.5,15.5 0 0 1 716.5,81 h51 a15.5,15.5 0 0 1 15.5,15.5 v0 a15.5,15.5 0 0 1 -15.5,15.5 h-51 a15.5,15.5 0 0 1 -15.5,-15.5 v0 A15.5,15.5 0 0 1 705.54,85.53999999999999"/></mask><path x="701" y="81" width="82" height="31" fill="rgba(255,255,255,0.04)" d="M716.5,81 h51 a15.5,15.5 0 0 1 15.5,15.5 v0 a15.5,15.5 0 0 1 -15.5,15.5 h-51 a15.5,15.5 0 0 1 -15.5,-15.5 v0 a15.5,15.5 0 0 1 15.5,-15.5" clip-path="url(#satori_cp-id)" mask="url(#satori_om-id)"/><path width="82" height="31" clip-path="url(#satori_bc-id-2-4)" fill="none" stroke="rgba(255,255,255,0.08)" stroke-width="2" d="M705.54,85.53999999999999 A15.5,15.5 0 0 1 716.5,81 h51 a15.5,15.5 0 0 1 15.5,15.5 v0 a15.5,15.5 0 0 1 -15.5,15.5 h-51 a15.5,15.5 0 0 1 -15.5,-15.5 v0 A15.5,15.5 0 0 1 705.54,85.53999999999999"/><g mask="url(#satori_om-id)" clip-path="url(#satori_cp-id)"><path fill="rgba(255,255,255,0.65)" d="M722.2 101L721.1 101L721.1 92.3L722.4 92.3L725.9 97.9Q726.1 98.1 726.3 98.4Q726.5 98.8 726.7 99.2L726.7 99.2Q726.8 99.4 726.9 99.7L726.9 99.7Q726.9 99.4 726.9 99.1L726.9 99.1Q726.9 98.7 726.9 98.3Q726.9 97.9 726.9 97.6L726.9 97.6L726.9 92.3L728.0 92.3L728.0 101L726.7 101L723.5 96.0Q723.3 95.7 723.1 95.3Q722.8 95.0 722.6 94.4L722.6 94.4Q722.4 94.1 722.1 93.6L722.1 93.6Q722.1 94.0 722.1 94.4L722.1 94.4Q722.1 95.0 722.2 95.4Q722.2 95.8 722.2 96.0L722.2 96.0L722.2 101ZM733.2 101.1L733.2 101.1Q732.3 101.1 731.6 100.7Q730.9 100.3 730.5 99.5Q730.2 98.8 730.2 97.8Q730.2 96.8 730.5 96.0Q730.9 95.2 731.5 94.8Q732.2 94.4 733.1 94.4L733.1 94.4Q733.6 94.4 734.1 94.5Q734.6 94.7 735.0 95.1Q735.5 95.5 735.7 96.1Q736.0 96.7 736.0 97.6L736.0 97.6L736.0 98.1L731.2 98.1Q731.2 98.7 731.5 99.2L731.5 99.2Q731.7 99.7 732.2 99.9Q732.6 100.2 733.2 100.2L733.2 100.2Q733.6 100.2 733.9 100.1Q734.2 100.0 734.5 99.8Q734.7 99.5 734.8 99.2L734.8 99.2L735.8 99.5Q735.7 100.0 735.3 100.3Q735.0 100.7 734.4 100.9Q733.9 101.1 733.2 101.1ZM731.2 97.2L731.2 97.2L734.9 97.2Q734.8 96.7 734.7 96.4L734.7 96.4Q734.5 95.9 734.1 95.6Q733.7 95.3 733.1 95.3Q732.5 95.3 732.1 95.6Q731.7 95.9 731.4 96.3L731.4 96.3Q731.3 96.7 731.2 97.2ZM740.2 101.1L740.2 101.1Q739.5 101.1 739.0 100.9Q738.5 100.7 738.1 100.4Q737.8 100.0 737.7 99.4L737.7 99.4L738.7 99.2Q738.8 99.7 739.2 100.0Q739.6 100.2 740.2 100.2L740.2 100.2Q740.9 100.2 741.3 99.9Q741.7 99.6 741.7 99.2L741.7 99.2Q741.7 98.9 741.4 98.7Q741.2 98.4 740.7 98.3L740.7 98.3L739.6 98.1Q738.7 97.9 738.3 97.4Q737.9 97.0 737.9 96.3L737.9 96.3Q737.9 95.7 738.2 95.3Q738.5 94.9 739.0 94.6Q739.6 94.4 740.3 94.4L740.3 94.4Q741.0 94.4 741.4 94.6Q741.9 94.8 742.2 95.1Q742.5 95.5 742.7 95.9L742.7 95.9L741.7 96.2Q741.6 95.8 741.2 95.6Q740.9 95.3 740.3 95.3L740.3 95.3Q739.7 95.3 739.3 95.5Q738.9 95.8 738.9 96.2L738.9 96.2Q738.9 96.6 739.2 96.8Q739.5 97.0 740.0 97.2L740.0 97.2L741.0 97.4Q741.9 97.6 742.3 98.0Q742.8 98.5 742.8 99.2L742.8 99.2Q742.8 99.7 742.4 100.2Q742.1 100.6 741.5 100.9Q741.0 101.1 740.2 101.1ZM746.0 94.4L747.4 94.4L747.4 95.4L746.0 95.4L746.0 99.3Q746.0 99.7 746.2 99.9Q746.4 100.1 746.8 100.1L746.8 100.1Q746.9 100.1 747.1 100.1Q747.2 100.1 747.3 100.1L747.3 100.1L747.6 101.0Q747.4 101.0 747.2 101.1Q747.0 101.1 746.8 101.1L746.8 101.1Q745.9 101.1 745.4 100.6Q745.0 100.2 745.0 99.4L745.0 99.4L745.0 95.4L744.0 95.4L744.0 94.4L745.0 94.4L745.0 92.9L746.0 92.9L746.0 94.4ZM751.5 101.1L751.5 101.1Q750.3 101.1 749.6 100.4Q748.9 99.8 748.9 98.5L748.9 98.5L748.9 98.0L750.0 98.0L750.0 98.5Q750.0 99.3 750.4 99.7Q750.8 100.1 751.5 100.1L751.5 100.1Q752.2 100.1 752.6 99.7Q753.0 99.3 753.0 98.5L753.0 98.5L753.0 92.3L754.1 92.3L754.1 98.5Q754.1 99.8 753.4 100.4Q752.6 101.1 751.5 101.1ZM759.5 101.2L759.5 101.2Q758.6 101.2 757.9 100.8Q757.2 100.5 756.8 100.0Q756.4 99.4 756.3 98.7L756.3 98.7L757.5 98.7Q757.5 99.2 757.8 99.5Q758.1 99.8 758.5 100.0Q759.0 100.2 759.5 100.2L759.5 100.2Q760.1 100.2 760.6 100.0Q761.0 99.8 761.3 99.4Q761.6 99.1 761.6 98.6L761.6 98.6Q761.6 98.2 761.3 97.9Q761.1 97.7 760.7 97.5Q760.3 97.3 759.9 97.2L759.9 97.2L758.8 96.9Q757.7 96.6 757.2 96.0Q756.6 95.5 756.6 94.6L756.6 94.6Q756.6 93.9 757.0 93.3Q757.4 92.8 758.0 92.5Q758.7 92.2 759.6 92.2L759.6 92.2Q760.4 92.2 761.1 92.5Q761.8 92.8 762.1 93.3Q762.5 93.8 762.5 94.5L762.5 94.5L761.5 94.5Q761.4 93.8 760.8 93.5Q760.3 93.1 759.5 93.1L759.5 93.1Q759.0 93.1 758.5 93.3Q758.1 93.5 757.9 93.8Q757.7 94.1 757.7 94.6L757.7 94.6Q757.7 95.0 757.9 95.3Q758.2 95.6 758.6 95.7Q759.0 95.9 759.3 96.0L759.3 96.0L760.2 96.2Q760.5 96.3 761.0 96.5Q761.4 96.6 761.8 96.9Q762.2 97.2 762.4 97.6Q762.7 98.0 762.7 98.6L762.7 98.6Q762.7 99.3 762.3 99.9Q761.9 100.5 761.2 100.8Q760.5 101.2 759.5 101.2Z "/></g><defs><clipPath id="satori_bc-id-2-5" clip-path="url(#satori_cp-id)"><path x="793" y="81" width="81" height="31" d="M808.5,81 h50 a15.5,15.5 0 0 1 15.5,15.5 v0 a15.5,15.5 0 0 1 -15.5,15.5 h-50 a15.5,15.5 0 0 1 -15.5,-15.5 v0 a15.5,15.5 0 0 1 15.5,-15.5"/></clipPath></defs><mask id="satori_om-id-2-5"><rect x="794" y="82" width="79" height="29" fill="#fff" mask="url(#satori_om-id)"/><path width="81" height="31" fill="none" stroke="#000" stroke-width="2" d="M797.54,85.53999999999999 A15.5,15.5 0 0 1 808.5,81 h50 a15.5,15.5 0 0 1 15.5,15.5 v0 a15.5,15.5 0 0 1 -15.5,15.5 h-50 a15.5,15.5 0 0 1 -15.5,-15.5 v0 A15.5,15.5 0 0 1 797.54,85.53999999999999"/></mask><path x="793" y="81" width="81" height="31" fill="rgba(255,255,255,0.04)" d="M808.5,81 h50 a15.5,15.5 0 0 1 15.5,15.5 v0 a15.5,15.5 0 0 1 -15.5,15.5 h-50 a15.5,15.5 0 0 1 -15.5,-15.5 v0 a15.5,15.5 0 0 1 15.5,-15.5" clip-path="url(#satori_cp-id)" mask="url(#satori_om-id)"/><path width="81" height="31" clip-path="url(#satori_bc-id-2-5)" fill="none" stroke="rgba(255,255,255,0.08)" stroke-width="2" d="M797.54,85.53999999999999 A15.5,15.5 0 0 1 808.5,81 h50 a15.5,15.5 0 0 1 15.5,15.5 v0 a15.5,15.5 0 0 1 -15.5,15.5 h-50 a15.5,15.5 0 0 1 -15.5,-15.5 v0 A15.5,15.5 0 0 1 797.54,85.53999999999999"/><g mask="url(#satori_om-id)" clip-path="url(#satori_cp-id)"><path fill="rgba(255,255,255,0.65)" d="M814.2 101L813.1 101L813.1 92.3L816.0 92.3Q817.1 92.3 817.7 92.6Q818.4 93.0 818.7 93.6Q819.0 94.3 819.0 95.0Q819.0 95.8 818.7 96.5Q818.4 97.1 817.7 97.5Q817.1 97.8 816.0 97.8L816.0 97.8L814.2 97.8L814.2 101ZM814.2 93.2L814.2 96.9L816.0 96.9Q816.7 96.9 817.1 96.6Q817.5 96.4 817.7 96.0Q817.9 95.6 817.9 95.0Q817.9 94.5 817.7 94.1Q817.5 93.7 817.1 93.5Q816.7 93.2 816.0 93.2L816.0 93.2L814.2 93.2ZM821.0 103.4L821.0 103.4L821.3 102.5L821.4 102.5Q821.7 102.6 822.0 102.5Q822.2 102.5 822.4 102.3Q822.6 102.0 822.8 101.6L822.8 101.6L823.0 101.0L820.5 94.4L821.6 94.4L823.0 98.3Q823.3 98.9 823.4 99.5L823.4 99.5Q823.5 99.8 823.5 100.0L823.5 100.0Q823.6 99.8 823.7 99.5L823.7 99.5Q823.8 98.9 824.0 98.3L824.0 98.3L825.4 94.4L826.6 94.4L823.7 102.0Q823.5 102.5 823.2 102.8Q823.0 103.2 822.6 103.3Q822.2 103.5 821.8 103.5L821.8 103.5Q821.5 103.5 821.3 103.5Q821.1 103.4 821.0 103.4ZM829.6 94.4L830.9 94.4L830.9 95.4L829.6 95.4L829.6 99.3Q829.6 99.7 829.7 99.9Q829.9 100.1 830.3 100.1L830.3 100.1Q830.4 100.1 830.6 100.1Q830.7 100.1 830.9 100.1L830.9 100.1L831.1 101.0Q830.9 101.0 830.7 101.1Q830.5 101.1 830.3 101.1L830.3 101.1Q829.5 101.1 829.0 100.6Q828.5 100.2 828.5 99.4L828.5 99.4L828.5 95.4L827.5 95.4L827.5 94.4L828.5 94.4L828.5 92.9L829.6 92.9L829.6 94.4ZM833.8 97.1L833.8 97.1L833.8 101L832.8 101L832.8 92.3L833.8 92.3L833.8 95.6Q834.1 95.0 834.5 94.7L834.5 94.7Q835.0 94.4 835.8 94.4L835.8 94.4Q836.4 94.4 836.9 94.6Q837.4 94.9 837.7 95.5Q838.0 96.0 838.0 96.8L838.0 96.8L838.0 101L836.9 101L836.9 96.9Q836.9 96.2 836.5 95.7Q836.2 95.3 835.5 95.3L835.5 95.3Q835.0 95.3 834.6 95.5Q834.2 95.7 834.0 96.1Q833.8 96.5 833.8 97.1ZM843.0 101.1L843.0 101.1Q842.1 101.1 841.5 100.7Q840.8 100.3 840.4 99.5Q840.0 98.8 840.0 97.8L840.0 97.8Q840.0 96.7 840.4 96.0Q840.8 95.2 841.5 94.8Q842.1 94.4 843.0 94.4L843.0 94.4Q843.9 94.4 844.6 94.8Q845.3 95.2 845.6 96.0Q846.0 96.7 846.0 97.8L846.0 97.8Q846.0 98.8 845.6 99.5Q845.3 100.3 844.6 100.7Q843.9 101.1 843.0 101.1ZM843.0 100.2L843.0 100.2Q843.7 100.2 844.1 99.9Q844.5 99.5 844.7 99.0Q844.9 98.4 844.9 97.8L844.9 97.8Q844.9 97.1 844.7 96.6Q844.5 96.0 844.1 95.7Q843.7 95.3 843.0 95.3L843.0 95.3Q842.4 95.3 841.9 95.7Q841.5 96.0 841.3 96.6Q841.1 97.1 841.1 97.8L841.1 97.8Q841.1 98.4 841.3 99.0Q841.5 99.5 841.9 99.9Q842.4 100.2 843.0 100.2ZM849.1 97.1L849.1 97.1L849.1 101L848.1 101L848.1 94.4L849.1 94.4L849.1 95.7Q849.3 95.0 849.8 94.7L849.8 94.7Q850.3 94.4 851.1 94.4L851.1 94.4Q851.7 94.4 852.2 94.6Q852.7 94.9 853.0 95.5Q853.3 96.0 853.3 96.8L853.3 96.8L853.3 101L852.2 101L852.2 96.9Q852.2 96.2 851.8 95.7Q851.4 95.3 850.8 95.3L850.8 95.3Q850.3 95.3 849.9 95.5Q849.5 95.7 849.3 96.1Q849.1 96.5 849.1 97.1Z "/></g><defs><clipPath id="satori_bc-id-2-6" clip-path="url(#satori_cp-id)"><path x="403" y="122" width="111" height="31" d="M418.5,122 h80 a15.5,15.5 0 0 1 15.5,15.5 v0 a15.5,15.5 0 0 1 -15.5,15.5 h-80 a15.5,15.5 0 0 1 -15.5,-15.5 v0 a15.5,15.5 0 0 1 15.5,-15.5"/></clipPath></defs><mask id="satori_om-id-2-6"><rect x="404" y="123" width="109" height="29" fill="#fff" mask="url(#satori_om-id)"/><path width="111" height="31" fill="none" stroke="#000" stroke-width="2" d="M407.54,126.53999999999999 A15.5,15.5 0 0 1 418.5,122 h80 a15.5,15.5 0 0 1 15.5,15.5 v0 a15.5,15.5 0 0 1 -15.5,15.5 h-80 a15.5,15.5 0 0 1 -15.5,-15.5 v0 A15.5,15.5 0 0 1 407.54,126.53999999999999"/></mask><path x="403" y="122" width="111" height="31" fill="rgba(255,255,255,0.04)" d="M418.5,122 h80 a15.5,15.5 0 0 1 15.5,15.5 v0 a15.5,15.5 0 0 1 -15.5,15.5 h-80 a15.5,15.5 0 0 1 -15.5,-15.5 v0 a15.5,15.5 0 0 1 15.5,-15.5" clip-path="url(#satori_cp-id)" mask="url(#satori_om-id)"/><path width="111" height="31" clip-path="url(#satori_bc-id-2-6)" fill="none" stroke="rgba(255,255,255,0.08)" stroke-width="2" d="M407.54,126.53999999999999 A15.5,15.5 0 0 1 418.5,122 h80 a15.5,15.5 0 0 1 15.5,15.5 v0 a15.5,15.5 0 0 1 -15.5,15.5 h-80 a15.5,15.5 0 0 1 -15.5,-15.5 v0 A15.5,15.5 0 0 1 407.54,126.53999999999999"/><g mask="url(#satori_om-id)" clip-path="url(#satori_cp-id)"><path fill="rgba(255,255,255,0.65)" d="M424.2 142L423.1 142L423.1 133.3L426.0 133.3Q427.1 133.3 427.7 133.6Q428.4 134.0 428.7 134.6Q429.0 135.3 429.0 136.0Q429.0 136.8 428.7 137.5Q428.4 138.1 427.7 138.5Q427.1 138.8 426.0 138.8L426.0 138.8L424.2 138.8L424.2 142ZM424.2 134.2L424.2 137.9L426.0 137.9Q426.7 137.9 427.1 137.6Q427.5 137.4 427.7 137.0Q427.9 136.6 427.9 136.0Q427.9 135.5 427.7 135.1Q427.5 134.7 427.1 134.5Q426.7 134.2 426.0 134.2L426.0 134.2L424.2 134.2ZM433.8 142.1L433.8 142.1Q432.9 142.1 432.2 141.7Q431.5 141.3 431.1 140.5Q430.8 139.8 430.8 138.8L430.8 138.8Q430.8 137.7 431.1 137.0Q431.5 136.2 432.2 135.8Q432.9 135.4 433.8 135.4L433.8 135.4Q434.7 135.4 435.3 135.8Q436 136.2 436.4 137.0Q436.8 137.7 436.8 138.8L436.8 138.8Q436.8 139.8 436.4 140.5Q436 141.3 435.3 141.7Q434.7 142.1 433.8 142.1ZM433.8 141.2L433.8 141.2Q434.4 141.2 434.8 140.9Q435.3 140.5 435.5 140.0Q435.7 139.4 435.7 138.8L435.7 138.8Q435.7 138.1 435.5 137.6Q435.3 137.0 434.8 136.7Q434.4 136.3 433.8 136.3L433.8 136.3Q433.1 136.3 432.7 136.7Q432.3 137.0 432.1 137.6Q431.8 138.1 431.8 138.8L431.8 138.8Q431.8 139.4 432.1 140.0Q432.3 140.5 432.7 140.9Q433.1 141.2 433.8 141.2ZM441.0 142.1L441.0 142.1Q440.3 142.1 439.8 141.9Q439.3 141.7 438.9 141.4Q438.6 141.0 438.5 140.4L438.5 140.4L439.5 140.2Q439.6 140.7 440.0 141.0Q440.4 141.2 441 141.2L441 141.2Q441.7 141.2 442.1 140.9Q442.5 140.6 442.5 140.2L442.5 140.2Q442.5 139.9 442.3 139.7Q442.0 139.4 441.5 139.3L441.5 139.3L440.4 139.1Q439.6 138.9 439.1 138.4Q438.7 138.0 438.7 137.3L438.7 137.3Q438.7 136.7 439.0 136.3Q439.3 135.9 439.9 135.6Q440.4 135.4 441.1 135.4L441.1 135.4Q441.8 135.4 442.3 135.6Q442.7 135.8 443.0 136.1Q443.3 136.5 443.5 136.9L443.5 136.9L442.5 137.2Q442.4 136.8 442.1 136.6Q441.8 136.3 441.1 136.3L441.1 136.3Q440.5 136.3 440.1 136.5Q439.8 136.8 439.8 137.2L439.8 137.2Q439.8 137.6 440.0 137.8Q440.3 138.0 440.9 138.2L440.9 138.2L441.8 138.4Q442.7 138.6 443.2 139.0Q443.6 139.5 443.6 140.2L443.6 140.2Q443.6 140.7 443.3 141.2Q442.9 141.6 442.4 141.9Q441.8 142.1 441.0 142.1ZM446.8 135.4L448.2 135.4L448.2 136.4L446.8 136.4L446.8 140.3Q446.8 140.7 447.0 140.9Q447.2 141.1 447.6 141.1L447.6 141.1Q447.7 141.1 447.9 141.1Q448.0 141.1 448.2 141.1L448.2 141.1L448.4 142.0Q448.2 142.0 448.0 142.1Q447.8 142.1 447.6 142.1L447.6 142.1Q446.7 142.1 446.3 141.6Q445.8 141.2 445.8 140.4L445.8 140.4L445.8 136.4L444.8 136.4L444.8 135.4L445.8 135.4L445.8 133.9L446.8 133.9L446.8 135.4ZM452.7 144.6L452.7 144.6Q452.0 144.6 451.4 144.4Q450.9 144.2 450.6 143.9Q450.2 143.6 450.0 143.3L450.0 143.3L450.9 142.7Q451 142.9 451.2 143.1Q451.4 143.3 451.8 143.5Q452.1 143.7 452.7 143.7L452.7 143.7Q453.5 143.7 454.0 143.3Q454.5 142.9 454.5 142.1L454.5 142.1L454.5 140.8L454.4 140.8Q454.3 141.0 454.1 141.2Q453.9 141.5 453.5 141.7Q453.1 141.9 452.5 141.9L452.5 141.9Q451.7 141.9 451.1 141.5Q450.5 141.2 450.1 140.4Q449.7 139.7 449.7 138.7L449.7 138.7Q449.7 137.7 450.1 136.9Q450.4 136.2 451.1 135.8Q451.7 135.4 452.5 135.4L452.5 135.4Q453.2 135.4 453.5 135.6Q453.9 135.8 454.1 136.1Q454.3 136.3 454.4 136.5L454.4 136.5L454.5 136.5L454.5 135.4L455.6 135.4L455.6 142.2Q455.6 143.0 455.2 143.5Q454.8 144.1 454.1 144.3Q453.5 144.6 452.7 144.6ZM452.7 141.0L452.7 141.0Q453.3 141.0 453.7 140.7Q454.1 140.4 454.3 139.9Q454.5 139.4 454.5 138.7L454.5 138.7Q454.5 138.0 454.3 137.4Q454.1 136.9 453.7 136.6Q453.3 136.3 452.7 136.3L452.7 136.3Q452.0 136.3 451.6 136.6Q451.2 136.9 451.0 137.5Q450.8 138.0 450.8 138.7L450.8 138.7Q450.8 139.3 451.0 139.9Q451.2 140.4 451.6 140.7Q452.1 141.0 452.7 141.0ZM459.0 142L457.9 142L457.9 135.4L458.9 135.4L458.9 136.5L459.0 136.5Q459.2 136.0 459.6 135.7Q460.1 135.4 460.7 135.4L460.7 135.4Q460.8 135.4 461.0 135.4Q461.1 135.4 461.2 135.4L461.2 135.4L461.2 136.4Q461.2 136.4 461.0 136.4Q460.8 136.4 460.6 136.4L460.6 136.4Q460.1 136.4 459.8 136.6Q459.4 136.8 459.2 137.1Q459.0 137.5 459.0 137.9L459.0 137.9L459.0 142ZM465.7 142.1L465.7 142.1Q464.7 142.1 464.0 141.7Q463.3 141.3 463.0 140.5Q462.6 139.8 462.6 138.8Q462.6 137.8 463.0 137.0Q463.3 136.2 464.0 135.8Q464.7 135.4 465.6 135.4L465.6 135.4Q466.1 135.4 466.6 135.5Q467.1 135.7 467.5 136.1Q467.9 136.5 468.2 137.1Q468.4 137.7 468.4 138.6L468.4 138.6L468.4 139.1L463.7 139.1Q463.7 139.7 463.9 140.2L463.9 140.2Q464.2 140.7 464.6 140.9Q465.1 141.2 465.7 141.2L465.7 141.2Q466.1 141.2 466.4 141.1Q466.7 141.0 466.9 140.8Q467.2 140.5 467.3 140.2L467.3 140.2L468.3 140.5Q468.1 141.0 467.8 141.3Q467.4 141.7 466.9 141.9Q466.3 142.1 465.7 142.1ZM463.7 138.2L463.7 138.2L467.3 138.2Q467.3 137.7 467.1 137.4L467.1 137.4Q466.9 136.9 466.5 136.6Q466.1 136.3 465.6 136.3Q465.0 136.3 464.5 136.6Q464.1 136.9 463.9 137.3L463.9 137.3Q463.7 137.7 463.7 138.2ZM473.3 142.2L473.3 142.2Q472.4 142.2 471.7 141.8Q471.0 141.5 470.6 141.0Q470.2 140.4 470.2 139.7L470.2 139.7L471.3 139.7Q471.4 140.2 471.6 140.5Q471.9 140.8 472.4 141.0Q472.8 141.2 473.3 141.2L473.3 141.2Q473.9 141.2 474.4 141.0Q474.9 140.8 475.2 140.4Q475.4 140.1 475.4 139.6L475.4 139.6Q475.4 139.2 475.2 138.9Q475.0 138.7 474.6 138.5Q474.2 138.3 473.7 138.2L473.7 138.2L472.6 137.9Q471.6 137.6 471.0 137.0Q470.4 136.5 470.4 135.6L470.4 135.6Q470.4 134.9 470.8 134.3Q471.2 133.8 471.9 133.5Q472.6 133.2 473.4 133.2L473.4 133.2Q474.3 133.2 474.9 133.5Q475.6 133.8 476.0 134.3Q476.4 134.8 476.4 135.5L476.4 135.5L475.3 135.5Q475.2 134.8 474.7 134.5Q474.2 134.1 473.4 134.1L473.4 134.1Q472.8 134.1 472.4 134.3Q472.0 134.5 471.7 134.8Q471.5 135.1 471.5 135.6L471.5 135.6Q471.5 136.0 471.8 136.3Q472.1 136.6 472.5 136.7Q472.8 136.9 473.2 137.0L473.2 137.0L474.0 137.2Q474.4 137.3 474.8 137.5Q475.2 137.6 475.6 137.9Q476.0 138.2 476.3 138.6Q476.5 139.0 476.5 139.6L476.5 139.6Q476.5 140.3 476.1 140.9Q475.8 141.5 475.1 141.8Q474.3 142.2 473.3 142.2ZM482.3 142.1L482.3 142.1Q481.2 142.1 480.3 141.6Q479.4 141.0 478.9 140.0Q478.4 139.0 478.4 137.6L478.4 137.6Q478.4 136.3 478.9 135.2Q479.4 134.2 480.3 133.7Q481.2 133.2 482.3 133.2Q483.4 133.2 484.3 133.7Q485.2 134.2 485.7 135.2Q486.2 136.3 486.2 137.6L486.2 137.6Q486.2 139.0 485.7 140.0L485.7 140.0Q485.3 140.8 484.6 141.3L484.6 141.3L485.8 142.8L484.6 142.8L483.8 141.8Q483.1 142.1 482.3 142.1ZM483.2 140.9L481.9 139.3L483.1 139.3L484.0 140.5Q484.4 140.1 484.7 139.5L484.7 139.5Q485.1 138.8 485.1 137.6L485.1 137.6Q485.1 136.5 484.7 135.7Q484.3 135.0 483.7 134.6Q483.1 134.2 482.3 134.2L482.3 134.2Q481.5 134.2 480.9 134.6Q480.2 135.0 479.9 135.8Q479.5 136.5 479.5 137.6L479.5 137.6Q479.5 138.8 479.9 139.5Q480.2 140.3 480.9 140.7Q481.5 141.1 482.3 141.1L482.3 141.1Q482.8 141.1 483.2 140.9L483.2 140.9ZM493.6 142L488.4 142L488.4 133.3L489.5 133.3L489.5 141.0L493.6 141.0L493.6 142Z "/></g><defs><clipPath id="satori_bc-id-2-7" clip-path="url(#satori_cp-id)"><path x="524" y="122" width="82" height="31" d="M539.5,122 h51 a15.5,15.5 0 0 1 15.5,15.5 v0 a15.5,15.5 0 0 1 -15.5,15.5 h-51 a15.5,15.5 0 0 1 -15.5,-15.5 v0 a15.5,15.5 0 0 1 15.5,-15.5"/></clipPath></defs><mask id="satori_om-id-2-7"><rect x="525" y="123" width="80" height="29" fill="#fff" mask="url(#satori_om-id)"/><path width="82" height="31" fill="none" stroke="#000" stroke-width="2" d="M528.54,126.53999999999999 A15.5,15.5 0 0 1 539.5,122 h51 a15.5,15.5 0 0 1 15.5,15.5 v0 a15.5,15.5 0 0 1 -15.5,15.5 h-51 a15.5,15.5 0 0 1 -15.5,-15.5 v0 A15.5,15.5 0 0 1 528.54,126.53999999999999"/></mask><path x="524" y="122" width="82" height="31" fill="rgba(255,255,255,0.04)" d="M539.5,122 h51 a15.5,15.5 0 0 1 15.5,15.5 v0 a15.5,15.5 0 0 1 -15.5,15.5 h-51 a15.5,15.5 0 0 1 -15.5,-15.5 v0 a15.5,15.5 0 0 1 15.5,-15.5" clip-path="url(#satori_cp-id)" mask="url(#satori_om-id)"/><path width="82" height="31" clip-path="url(#satori_bc-id-2-7)" fill="none" stroke="rgba(255,255,255,0.08)" stroke-width="2" d="M528.54,126.53999999999999 A15.5,15.5 0 0 1 539.5,122 h51 a15.5,15.5 0 0 1 15.5,15.5 v0 a15.5,15.5 0 0 1 -15.5,15.5 h-51 a15.5,15.5 0 0 1 -15.5,-15.5 v0 A15.5,15.5 0 0 1 528.54,126.53999999999999"/><g mask="url(#satori_om-id)" clip-path="url(#satori_cp-id)"><path fill="rgba(255,255,255,0.65)" d="M545.1 142L544.1 142L544.1 133.3L545.6 133.3L547.8 138.8Q547.9 139.0 548.0 139.3Q548.1 139.6 548.2 139.9Q548.3 140.2 548.4 140.6L548.4 140.6Q548.4 140.7 548.4 140.8L548.4 140.8Q548.5 140.7 548.5 140.6L548.5 140.6Q548.6 140.3 548.7 139.9Q548.8 139.6 548.9 139.3Q549 139.0 549.1 138.8L549.1 138.8L551.2 133.3L552.8 133.3L552.8 142L551.7 142L551.7 137.0Q551.7 136.7 551.7 136.4Q551.7 136.1 551.7 135.7Q551.7 135.3 551.7 134.9L551.7 134.9Q551.7 134.7 551.7 134.5L551.7 134.5Q551.7 134.7 551.6 135.0L551.6 135.0Q551.4 135.4 551.3 135.8Q551.2 136.2 551.1 136.5Q550.9 136.8 550.9 137.0L550.9 137.0L548.9 142L547.9 142L546.0 137.0Q545.9 136.8 545.8 136.5Q545.6 136.2 545.5 135.8Q545.4 135.4 545.2 135.0L545.2 135.0Q545.2 134.7 545.1 134.5L545.1 134.5Q545.1 134.7 545.1 134.8L545.1 134.8Q545.1 135.2 545.1 135.6Q545.1 136.0 545.1 136.4Q545.1 136.7 545.1 137.0L545.1 137.0L545.1 142ZM555.2 144.4L555.2 144.4L555.4 143.5L555.5 143.5Q555.9 143.6 556.1 143.5Q556.4 143.5 556.6 143.3Q556.8 143.0 557.0 142.6L557.0 142.6L557.2 142.0L554.7 135.4L555.8 135.4L557.2 139.3Q557.4 139.9 557.6 140.5L557.6 140.5Q557.6 140.8 557.7 141.0L557.7 141.0Q557.8 140.8 557.8 140.5L557.8 140.5Q558.0 139.9 558.2 139.3L558.2 139.3L559.6 135.4L560.8 135.4L557.9 143.0Q557.7 143.5 557.4 143.8Q557.1 144.2 556.8 144.3Q556.4 144.5 555.9 144.5L555.9 144.5Q555.7 144.5 555.4 144.5Q555.2 144.4 555.2 144.4ZM565.4 142.2L565.4 142.2Q564.5 142.2 563.8 141.8Q563.1 141.5 562.7 141.0Q562.3 140.4 562.3 139.7L562.3 139.7L563.4 139.7Q563.5 140.2 563.7 140.5Q564.0 140.8 564.5 141.0Q564.9 141.2 565.4 141.2L565.4 141.2Q566.0 141.2 566.5 141.0Q567.0 140.8 567.2 140.4Q567.5 140.1 567.5 139.6L567.5 139.6Q567.5 139.2 567.3 138.9Q567.0 138.7 566.7 138.5Q566.3 138.3 565.8 138.2L565.8 138.2L564.7 137.9Q563.7 137.6 563.1 137.0Q562.5 136.5 562.5 135.6L562.5 135.6Q562.5 134.9 562.9 134.3Q563.3 133.8 564.0 133.5Q564.7 133.2 565.5 133.2L565.5 133.2Q566.4 133.2 567.0 133.5Q567.7 133.8 568.1 134.3Q568.5 134.8 568.5 135.5L568.5 135.5L567.4 135.5Q567.3 134.8 566.8 134.5Q566.3 134.1 565.5 134.1L565.5 134.1Q564.9 134.1 564.5 134.3Q564.1 134.5 563.8 134.8Q563.6 135.1 563.6 135.6L563.6 135.6Q563.6 136.0 563.9 136.3Q564.2 136.6 564.6 136.7Q564.9 136.9 565.3 137.0L565.3 137.0L566.1 137.2Q566.5 137.3 566.9 137.5Q567.3 137.6 567.7 137.9Q568.1 138.2 568.4 138.6Q568.6 139.0 568.6 139.6L568.6 139.6Q568.6 140.3 568.2 140.9Q567.9 141.5 567.2 141.8Q566.4 142.2 565.4 142.2ZM574.4 142.1L574.4 142.1Q573.3 142.1 572.4 141.6Q571.5 141.0 571.0 140.0Q570.5 139.0 570.5 137.6L570.5 137.6Q570.5 136.3 571.0 135.2Q571.5 134.2 572.4 133.7Q573.3 133.2 574.4 133.2Q575.5 133.2 576.4 133.7Q577.2 134.2 577.7 135.2Q578.2 136.3 578.2 137.6L578.2 137.6Q578.2 139.0 577.7 140.0L577.7 140.0Q577.3 140.8 576.7 141.3L576.7 141.3L577.8 142.8L576.7 142.8L575.9 141.8Q575.2 142.1 574.4 142.1ZM575.3 140.9L574.0 139.3L575.2 139.3L576.1 140.5Q576.5 140.1 576.8 139.5L576.8 139.5Q577.2 138.8 577.2 137.6L577.2 137.6Q577.2 136.5 576.8 135.7Q576.4 135.0 575.8 134.6Q575.2 134.2 574.4 134.2L574.4 134.2Q573.6 134.2 573.0 134.6Q572.3 135.0 572.0 135.8Q571.6 136.5 571.6 137.6L571.6 137.6Q571.6 138.8 572.0 139.5Q572.3 140.3 573.0 140.7Q573.6 141.1 574.4 141.1L574.4 141.1Q574.9 141.1 575.3 140.9L575.3 140.9ZM585.7 142L580.5 142L580.5 133.3L581.6 133.3L581.6 141.0L585.7 141.0L585.7 142Z "/></g><defs><clipPath id="satori_bc-id-2-8" clip-path="url(#satori_cp-id)"><path x="616" y="122" width="82" height="31" d="M631.5,122 h51 a15.5,15.5 0 0 1 15.5,15.5 v0 a15.5,15.5 0 0 1 -15.5,15.5 h-51 a15.5,15.5 0 0 1 -15.5,-15.5 v0 a15.5,15.5 0 0 1 15.5,-15.5"/></clipPath></defs><mask id="satori_om-id-2-8"><rect x="617" y="123" width="80" height="29" fill="#fff" mask="url(#satori_om-id)"/><path width="82" height="31" fill="none" stroke="#000" stroke-width="2" d="M620.54,126.53999999999999 A15.5,15.5 0 0 1 631.5,122 h51 a15.5,15.5 0 0 1 15.5,15.5 v0 a15.5,15.5 0 0 1 -15.5,15.5 h-51 a15.5,15.5 0 0 1 -15.5,-15.5 v0 A15.5,15.5 0 0 1 620.54,126.53999999999999"/></mask><path x="616" y="122" width="82" height="31" fill="rgba(255,255,255,0.04)" d="M631.5,122 h51 a15.5,15.5 0 0 1 15.5,15.5 v0 a15.5,15.5 0 0 1 -15.5,15.5 h-51 a15.5,15.5 0 0 1 -15.5,-15.5 v0 a15.5,15.5 0 0 1 15.5,-15.5" clip-path="url(#satori_cp-id)" mask="url(#satori_om-id)"/><path width="82" height="31" clip-path="url(#satori_bc-id-2-8)" fill="none" stroke="rgba(255,255,255,0.08)" stroke-width="2" d="M620.54,126.53999999999999 A15.5,15.5 0 0 1 631.5,122 h51 a15.5,15.5 0 0 1 15.5,15.5 v0 a15.5,15.5 0 0 1 -15.5,15.5 h-51 a15.5,15.5 0 0 1 -15.5,-15.5 v0 A15.5,15.5 0 0 1 620.54,126.53999999999999"/><g mask="url(#satori_om-id)" clip-path="url(#satori_cp-id)"><path fill="rgba(255,255,255,0.65)" d="M638.8 142L638.8 142L636.1 142L636.1 133.3L638.9 133.3Q640.2 133.3 641.1 133.8Q642.0 134.3 642.5 135.3Q642.9 136.3 642.9 137.6L642.9 137.6Q642.9 139.0 642.5 140.0Q642.0 140.9 641.0 141.5Q640.1 142 638.8 142ZM637.2 134.3L637.2 141.0L638.7 141.0Q639.8 141.0 640.5 140.6Q641.2 140.2 641.5 139.4Q641.9 138.7 641.9 137.6L641.9 137.6Q641.9 136.6 641.5 135.8Q641.2 135.1 640.5 134.7Q639.8 134.3 638.8 134.3L638.8 134.3L637.2 134.3ZM647.8 142.1L647.8 142.1Q646.9 142.1 646.2 141.7Q645.5 141.3 645.1 140.5Q644.8 139.8 644.8 138.8L644.8 138.8Q644.8 137.7 645.1 137.0Q645.5 136.2 646.2 135.8Q646.9 135.4 647.8 135.4L647.8 135.4Q648.6 135.4 649.3 135.8Q650.0 136.2 650.4 137.0Q650.7 137.7 650.7 138.8L650.7 138.8Q650.7 139.8 650.4 140.5Q650.0 141.3 649.3 141.7Q648.6 142.1 647.8 142.1ZM647.8 141.2L647.8 141.2Q648.4 141.2 648.8 140.9Q649.3 140.5 649.5 140.0Q649.7 139.4 649.7 138.8L649.7 138.8Q649.7 138.1 649.5 137.6Q649.3 137.0 648.8 136.7Q648.4 136.3 647.8 136.3L647.8 136.3Q647.1 136.3 646.7 136.7Q646.3 137.0 646.0 137.6Q645.8 138.1 645.8 138.8L645.8 138.8Q645.8 139.4 646.0 140.0Q646.3 140.5 646.7 140.9Q647.1 141.2 647.8 141.2ZM655.4 142.1L655.4 142.1Q654.6 142.1 653.9 141.7Q653.2 141.3 652.8 140.5Q652.5 139.8 652.5 138.8L652.5 138.8Q652.5 137.7 652.8 137.0Q653.2 136.2 653.9 135.8Q654.6 135.4 655.4 135.4L655.4 135.4Q655.9 135.4 656.3 135.5Q656.8 135.6 657.1 135.8Q657.5 136.1 657.7 136.4Q658.0 136.8 658.1 137.2L658.1 137.2L657.1 137.5Q657.0 137.2 656.9 137.0Q656.7 136.8 656.5 136.6Q656.3 136.5 656.0 136.4Q655.8 136.3 655.4 136.3L655.4 136.3Q654.8 136.3 654.4 136.7Q653.9 137.0 653.7 137.6Q653.5 138.1 653.5 138.8L653.5 138.8Q653.5 139.4 653.7 140.0Q653.9 140.5 654.4 140.9Q654.8 141.2 655.4 141.2L655.4 141.2Q655.8 141.2 656.1 141.1Q656.3 141.0 656.5 140.9Q656.8 140.7 656.9 140.5Q657.0 140.3 657.1 140.0L657.1 140.0L658.1 140.3Q658.0 140.7 657.7 141.1Q657.5 141.4 657.1 141.6Q656.8 141.9 656.4 142.0Q655.9 142.1 655.4 142.1ZM661.2 142L660.1 142L660.1 133.3L661.2 133.3L661.2 138.3L661.3 138.3L664.1 135.4L665.4 135.4L662.7 138.3L665.6 142L664.3 142L661.9 138.9L661.2 139.6L661.2 142ZM670.0 142.1L670.0 142.1Q669.0 142.1 668.3 141.7Q667.7 141.3 667.3 140.5Q666.9 139.8 666.9 138.8Q666.9 137.8 667.3 137.0Q667.6 136.2 668.3 135.8Q669.0 135.4 669.9 135.4L669.9 135.4Q670.4 135.4 670.9 135.5Q671.4 135.7 671.8 136.1Q672.2 136.5 672.5 137.1Q672.7 137.7 672.7 138.6L672.7 138.6L672.7 139.1L668.0 139.1Q668.0 139.7 668.2 140.2L668.2 140.2Q668.5 140.7 668.9 140.9Q669.4 141.2 670.0 141.2L670.0 141.2Q670.4 141.2 670.7 141.1Q671.0 141.0 671.2 140.8Q671.5 140.5 671.6 140.2L671.6 140.2L672.6 140.5Q672.4 141.0 672.1 141.3Q671.7 141.7 671.2 141.9Q670.7 142.1 670.0 142.1ZM668.0 138.2L668.0 138.2L671.6 138.2Q671.6 137.7 671.4 137.4L671.4 137.4Q671.2 136.9 670.8 136.6Q670.4 136.3 669.9 136.3Q669.3 136.3 668.8 136.6Q668.4 136.9 668.2 137.3L668.2 137.3Q668.0 137.7 668.0 138.2ZM675.8 142L674.7 142L674.7 135.4L675.7 135.4L675.7 136.5L675.8 136.5Q676.0 136.0 676.5 135.7Q676.9 135.4 677.5 135.4L677.5 135.4Q677.6 135.4 677.8 135.4Q677.9 135.4 678.0 135.4L678.0 135.4L678.0 136.4Q678.0 136.4 677.8 136.4Q677.6 136.4 677.4 136.4L677.4 136.4Q676.9 136.4 676.6 136.6Q676.2 136.8 676.0 137.1Q675.8 137.5 675.8 137.9L675.8 137.9L675.8 142Z "/></g><defs><clipPath id="satori_bc-id-2-9" clip-path="url(#satori_cp-id)"><path x="708" y="122" width="56" height="31" d="M723.5,122 h25 a15.5,15.5 0 0 1 15.5,15.5 v0 a15.5,15.5 0 0 1 -15.5,15.5 h-25 a15.5,15.5 0 0 1 -15.5,-15.5 v0 a15.5,15.5 0 0 1 15.5,-15.5"/></clipPath></defs><mask id="satori_om-id-2-9"><rect x="709" y="123" width="54" height="29" fill="#fff" mask="url(#satori_om-id)"/><path width="56" height="31" fill="none" stroke="#000" stroke-width="2" d="M712.54,126.53999999999999 A15.5,15.5 0 0 1 723.5,122 h25 a15.5,15.5 0 0 1 15.5,15.5 v0 a15.5,15.5 0 0 1 -15.5,15.5 h-25 a15.5,15.5 0 0 1 -15.5,-15.5 v0 A15.5,15.5 0 0 1 712.54,126.53999999999999"/></mask><path x="708" y="122" width="56" height="31" fill="rgba(255,255,255,0.04)" d="M723.5,122 h25 a15.5,15.5 0 0 1 15.5,15.5 v0 a15.5,15.5 0 0 1 -15.5,15.5 h-25 a15.5,15.5 0 0 1 -15.5,-15.5 v0 a15.5,15.5 0 0 1 15.5,-15.5" clip-path="url(#satori_cp-id)" mask="url(#satori_om-id)"/><path width="56" height="31" clip-path="url(#satori_bc-id-2-9)" fill="none" stroke="rgba(255,255,255,0.08)" stroke-width="2" d="M712.54,126.53999999999999 A15.5,15.5 0 0 1 723.5,122 h25 a15.5,15.5 0 0 1 15.5,15.5 v0 a15.5,15.5 0 0 1 -15.5,15.5 h-25 a15.5,15.5 0 0 1 -15.5,-15.5 v0 A15.5,15.5 0 0 1 712.54,126.53999999999999"/><g mask="url(#satori_om-id)" clip-path="url(#satori_cp-id)"><path fill="rgba(255,255,255,0.65)" d="M731.6 142.1L731.6 142.1Q730.5 142.1 729.6 141.6Q728.7 141.0 728.2 140.0Q727.7 139.0 727.7 137.6L727.7 137.6Q727.7 136.3 728.2 135.2Q728.7 134.2 729.6 133.7Q730.4 133.2 731.6 133.2L731.6 133.2Q732.2 133.2 732.8 133.4Q733.4 133.6 733.9 133.9Q734.4 134.3 734.7 134.8Q735.0 135.4 735.1 136.0L735.1 136.0L734.0 136.0Q733.9 135.6 733.6 135.3Q733.4 134.9 733.1 134.7Q732.8 134.4 732.4 134.3Q732.0 134.2 731.6 134.2L731.6 134.2Q730.8 134.2 730.2 134.6Q729.5 135.0 729.2 135.7Q728.8 136.5 728.8 137.6L728.8 137.6Q728.8 138.8 729.2 139.5Q729.5 140.3 730.2 140.7Q730.8 141.1 731.6 141.1L731.6 141.1Q732.4 141.1 732.9 140.8Q733.5 140.5 733.8 139.9L733.8 139.9Q734.1 139.3 734.1 138.6L734.1 138.6L731.9 138.6L731.9 137.6L735.2 137.6L735.2 138.6Q735.2 139.7 734.7 140.4Q734.3 141.2 733.5 141.7Q732.7 142.1 731.6 142.1ZM738.4 142L737.4 142L737.4 135.4L738.4 135.4L738.4 142ZM737.9 134.4L737.9 134.4Q737.6 134.4 737.4 134.2Q737.2 134.0 737.2 133.7L737.2 133.7Q737.2 133.4 737.4 133.2Q737.6 133.0 737.9 133.0L737.9 133.0Q738.2 133.0 738.4 133.2Q738.7 133.4 738.7 133.7L738.7 133.7Q738.7 134.0 738.4 134.2Q738.2 134.4 737.9 134.4ZM742.0 135.4L743.4 135.4L743.4 136.4L742.0 136.4L742.0 140.3Q742.0 140.7 742.2 140.9Q742.4 141.1 742.8 141.1L742.8 141.1Q742.9 141.1 743.0 141.1Q743.2 141.1 743.3 141.1L743.3 141.1L743.5 142.0Q743.4 142.0 743.2 142.1Q743.0 142.1 742.8 142.1L742.8 142.1Q741.9 142.1 741.4 141.6Q741.0 141.2 741.0 140.4L741.0 140.4L741.0 136.4L740.0 136.4L740.0 135.4L741.0 135.4L741.0 133.9L742.0 133.9L742.0 135.4Z "/></g></svg>